<?xml version="1.0" encoding="utf-8"?>
<!-- Generator: Adobe Illustrator 18.0.0, SVG Export Plug-In . SVG Version: 6.00 Build 0)  -->
<!DOCTYPE svg PUBLIC "-//W3C//DTD SVG 1.1//EN" "http://www.w3.org/Graphics/SVG/1.1/DTD/svg11.dtd">
<svg version="1.1" id="Layer_1" xmlns="http://www.w3.org/2000/svg" xmlns:xlink="http://www.w3.org/1999/xlink" x="0px" y="0px"
	 viewBox="0 0 360 360" enable-background="new 0 0 360 360" xml:space="preserve">
<g>
	
		<rect x="59.3" y="85.8" transform="matrix(0.7501 0.6613 -0.6613 0.7501 77.0479 -27.5589)" fill="#FCF6D7" width="31.4" height="4.8"/>
	<polygon fill="#FCF6D7" points="96.1,89 88.7,80.5 83.1,74.5 101.1,84.7 103.6,82.5 83,58.8 79.8,61.6 86.5,69.4 92.4,75.6 
		75,65.8 72.2,68.2 92.8,91.9 	"/>
	<polygon fill="#FCF6D7" points="95.3,55.1 110.2,78 114.2,75.4 99.3,52.5 102.3,50.6 100.1,47.1 90,53.6 92.3,57.1 	"/>
	<polygon fill="#FCF6D7" points="130.6,66.7 128.8,63 123.5,65.6 119.1,56.6 124,54.2 122.3,50.6 117.4,53 113.4,44.8 118.6,42.3 
		116.8,38.5 107.3,43.1 121,71.4 	"/>
	<path fill="#FCF6D7" d="M140.2,63.2l-4.5-14.1l1.5-0.4c1-0.3,1.7-0.3,2.1,0.1c0.5,0.3,0.9,1.2,1.3,2.5c2.2,6.9,3.4,10.5,3.6,10.7
		l4.6-1.4c-0.2-0.2-0.9-2.3-2.1-6.1c-1.2-3.8-2.2-6.3-3-7.4s-1.7-1.6-2.8-1.4c0.9-0.7,1.5-1.5,1.5-2.6c0.1-1.1-0.2-2.5-0.7-4.3
		c-0.6-1.8-1.2-3.3-1.8-4.3c-0.6-1.1-1.4-1.8-2.4-2.2c-1-0.4-2.2-0.3-3.8,0.2l-7.5,2.4l9.4,30L140.2,63.2z M131.9,36.8l1.5-0.5
		c1-0.3,1.7-0.3,2.1,0.2c0.4,0.4,0.9,1.4,1.4,3.1l0.1,0.2c0.4,1.3,0.7,2.3,0.8,3c0.1,0.7,0,1.2-0.2,1.5c-0.2,0.3-0.6,0.6-1.2,0.8
		l-1.8,0.6L131.9,36.8z"/>
	<polygon fill="#FCF6D7" points="158.7,58.6 157.1,47.5 155.7,39.4 165.2,57.7 168.6,57.2 164.1,26.1 159.9,26.7 161.3,36.9 
		162.9,45.3 153.6,27.6 149.9,28.2 154.4,59.3 	"/>
	<path fill="#FCF6D7" d="M178.7,51.4l5.1,0.1l0.6,5.6l4.5,0.1l-4.2-31.5l-6.3-0.1l-5.1,31.3l4.6,0.1L178.7,51.4z M181.5,31.8
		L181.5,31.8l1.9,15.8l-4.1-0.1L181.5,31.8z"/>
	<polygon fill="#FCF6D7" points="199.8,58.8 203.9,31.8 207.4,32.4 208.1,28.3 196.2,26.4 195.6,30.5 199.2,31.1 195.1,58.1 	"/>
	
		<rect x="198.4" y="43.5" transform="matrix(-0.2562 0.9666 -0.9666 -0.2562 313.3693 -149.366)" fill="#FCF6D7" width="31.4" height="4.8"/>
	<path fill="#FCF6D7" d="M220.7,62.2c0.5,1.8,1.8,3.2,4.1,4.1c2.2,0.9,4.1,0.9,5.7-0.1c1.6-1,2.9-2.9,4.1-5.8l5.4-13.3
		c1.1-2.6,1.4-4.8,0.9-6.6c-0.4-1.8-1.8-3.1-4-4c-4.4-1.8-7.6,0-9.8,5.4l-5.4,13.3C220.5,58.1,220.2,60.4,220.7,62.2z M226.1,57.1
		l5.5-13.6c0.6-1.4,1.1-2.3,1.7-2.8s1.2-0.6,2-0.3c0.8,0.3,1.1,0.8,1.1,1.6c0,0.7-0.3,1.8-0.8,3.2l-5.5,13.6
		c-0.7,1.7-1.3,2.8-1.8,3.4c-0.5,0.6-1.2,0.7-2,0.4c-0.8-0.3-1.2-0.9-1.2-1.7C225.1,60,225.4,58.8,226.1,57.1z"/>
	<polygon fill="#FCF6D7" points="240.3,73.5 246.1,63.8 250.2,56.6 245.9,76.9 248.8,78.6 265.1,51.8 261.4,49.5 256.1,58.3 
		251.9,65.8 256,46.3 252.8,44.3 236.5,71.2 	"/>
	<path fill="#FCF6D7" d="M256.2,84.4l4.2-3.8l3.9,3.3l-3.1,4.7l3.4,2.9l16.8-27l-4.8-4.1l-23.8,21L256.2,84.4z M274.9,67.2
		L274.9,67.2l-8.6,13.4l-3.1-2.7L274.9,67.2z"/>
	<polygon fill="#FCF6D7" points="275,103.3 278.1,100.6 274.1,96 294.6,77.9 291.4,74.3 267.9,95.1 	"/>
	<path fill="#FCF6D7" d="M181.5,260.7c1,0,2.1,0,3.4,0c0.2-0.8,0.5-1.6,0.6-2.4c0.6-4.7,1.1-9.4,2.6-13.9c0.3-0.8,0.4-1.6,0.5-2.5
		c0.6-4.7,1.1-9.4,1.7-14.1c0.8-6.2,1.6-12.4,2.4-18.6c0.8-6.7,1.6-13.4,2.4-20.1c-2.1-0.4-11.4-0.4-13.6,0
		C181,191.7,181,258.7,181.5,260.7z"/>
	<path fill="#FCF6D7" d="M165.9,196.1c0.4,3.2,0.7,6.4,1.1,9.6c0.4,3.4,1,6.9,1.4,10.3c0.4,3.4,0.7,6.7,1.2,10.1
		c0.5,3.8,0.9,7.5,1.4,11.3c0.4,2.6,0.7,5.2,1.2,7.8c0.6,3.1,1.3,6.1,1.8,9.2c0.4,2.1,0.7,4.3,1.1,6.4c1.4,0,2.4,0,3.5,0
		c0.5-2.6,0.4-69.8-0.1-71.8c-4.4,0-8.8,0-13.4,0C165.4,191.4,165.6,193.7,165.9,196.1z"/>
	<path fill="#FCF6D7" d="M197.5,189c-2,16.6-4.1,33-6.1,49.6c3.5-3.6,6.8-7.1,10.3-10.7c1.5-6.3,3.1-12.8,4.7-19.2
		c1.6-6.6,3.3-13.1,5-20c-2.6,0-4.8,0-7,0C202.1,188.8,199.8,188.5,197.5,189z"/>
	<path fill="#FCF6D7" d="M158.1,226.6c0.3,1,0.6,1.9,1.4,2.6c3.1,3,6.1,6.1,9.2,9.3c-1-8.4-2-16.6-3.1-24.9
		c-1.1-8.2-3.2-24.7-3.2-24.7l-13.5,0.4c0,0,0.7,3.2,1.1,4.9C152.8,205,155.5,215.8,158.1,226.6z"/>
	<path fill="#FCF6D7" d="M207,215.9c-0.8,3.1-1.4,6.2-2.1,9.3c4.3-3.4,8.6-6.7,12.8-10c3.2-8.9,6.6-17.4,9.6-26.4c-4.7,0-9,0-13.5,0
		c-0.2,0.7-0.5,1.3-0.7,1.9C211.2,199.2,209.1,207.6,207,215.9z"/>
	<path fill="#FCF6D7" d="M133.6,188.8c-0.2,0-0.5,0.2-0.8,0.3c0.2,0.6,0.3,1.1,0.5,1.7c2.7,7.3,5.4,14.6,8.1,21.9
		c0.6,1.7,1.5,3.2,3,4.2c1.1,0.7,2.1,1.7,3.2,2.5c2.6,2,5.1,4,7.9,6.1c-2.9-11.8-5.7-23.3-8.6-34.7c-0.2-0.7-0.5-1.4-0.7-2
		C141.8,188.8,137.7,188.8,133.6,188.8z"/>
	<path fill="#FCF6D7" d="M221.6,212.2c2.1-1.8,4.2-3.7,6.3-5.5c4.1-3.6,7.9-7.4,11.3-11.6c1.5-1.8,2.3-3.9,3.3-6.2
		c-4.3,0-8.3,0-12.6,0c-2.9,7.7-5.7,15.4-8.5,23C221.5,212,221.6,212.1,221.6,212.2z"/>
	<path fill="#FCF6D7" d="M121.1,195.5c4.1,4.9,8.8,9.4,13.6,13.6c1.1,1,2.3,1.9,3.5,2.8c0.1-0.1,0.2-0.1,0.3-0.2
		c-2.8-7.6-5.6-15.1-8.5-22.9c-4.1-0.1-8.2,0-12.5-0.1C118.6,191.4,119.5,193.6,121.1,195.5z"/>
	<path fill="#FCF6D7" d="M204.8,225.4c0,0,0.1-0.1,0.1-0.1c0,0,0,0,0-0.1c0,0,0,0,0,0C204.9,225.3,204.9,225.4,204.8,225.4z"/>
	<path fill="#FCF6D7" d="M257,146.4c0-42.5-34.5-77-77-77c-42.5,0-77,34.5-77,77c0,14.5,4,28,11,39.6H246
		C252.9,174.4,257,160.8,257,146.4z"/>
	<path fill="#FCF6D7" d="M48.4,220.4v1h4.9l0.2-2.5h-0.9c0,0.3-0.1,0.5-0.2,0.7c-0.1,0.2-0.3,0.3-0.4,0.4c-0.2,0.1-0.4,0.2-0.6,0.2
		c-0.2,0.1-0.4,0.1-0.5,0.1h-0.5v-2.6H52v-1h-1.6v-2.2h0.6c0.1,0,0.3,0,0.4,0.1c0.2,0,0.3,0.1,0.5,0.2c0.1,0.1,0.3,0.2,0.4,0.4
		s0.2,0.4,0.2,0.6h0.9l-0.2-2.2h-4.7v1h0.5v5.8H48.4z"/>
	<path fill="#FCF6D7" d="M59,219.1l-0.3,1.6c0.1,0.1,0.3,0.3,0.5,0.4c0.2,0.1,0.5,0.2,0.8,0.3s0.8,0.1,1.3,0.1c0.5,0,1-0.1,1.3-0.2
		c0.4-0.1,0.7-0.3,0.9-0.5c0.2-0.2,0.4-0.5,0.5-0.8c0.1-0.3,0.2-0.6,0.2-1c0-0.3-0.1-0.6-0.2-0.8c-0.1-0.2-0.3-0.4-0.5-0.6
		c-0.2-0.2-0.4-0.3-0.7-0.5c-0.3-0.1-0.6-0.3-0.9-0.4c-0.3-0.1-0.6-0.2-0.8-0.3c-0.2-0.1-0.4-0.2-0.5-0.3c-0.1-0.1-0.2-0.2-0.3-0.4
		s-0.1-0.4-0.1-0.6c0-0.3,0.1-0.4,0.3-0.6s0.4-0.2,0.6-0.3c0.2,0,0.5,0,0.7,0s0.4,0.1,0.5,0.3v0.9h1.1l0.2-1.4
		c-0.2-0.1-0.4-0.3-0.8-0.4c-0.3-0.1-0.6-0.2-1-0.3s-0.7-0.1-1.1,0c-0.4,0-0.7,0.1-1,0.3c-0.3,0.2-0.5,0.4-0.7,0.8
		c-0.2,0.3-0.3,0.8-0.3,1.3c0,0.4,0.1,0.8,0.3,1.1c0.2,0.3,0.4,0.5,0.7,0.7s0.5,0.3,0.8,0.4c0.3,0.1,0.5,0.2,0.7,0.2
		c0.2,0.1,0.3,0.1,0.5,0.2s0.3,0.1,0.4,0.2c0.1,0.1,0.2,0.2,0.3,0.3c0.1,0.1,0.1,0.3,0.1,0.5c0,0.2,0,0.4-0.1,0.5
		c-0.1,0.1-0.2,0.2-0.4,0.3c-0.2,0.1-0.3,0.1-0.5,0.1c-0.2,0-0.4,0-0.6,0s-0.4-0.1-0.5-0.1c-0.2-0.1-0.3-0.1-0.4-0.2v-0.9H59z"/>
	<path fill="#FCF6D7" d="M73.9,214.9c0.3,0.2,0.4,0.5,0.4,0.9h0.9l-0.2-2.2h-5.8l-0.2,2.2H70c0-0.2,0-0.4,0.1-0.6
		c0.1-0.2,0.2-0.3,0.4-0.4c0.1-0.1,0.3-0.1,0.5-0.2c0.2,0,0.3-0.1,0.5-0.1v5.8h-0.6v1h2.6v-1h-0.6v-5.8
		C73.3,214.6,73.6,214.7,73.9,214.9z"/>
	<rect x="80.2" y="219.7" fill="#FCF6D7" width="1.6" height="1.6"/>
	<polygon fill="#FCF6D7" points="278.2,220.7 278.2,221.8 282.3,221.8 282.3,220.7 281,220.7 281,213.9 280.2,213.9 278.2,214.6 
		278.2,215.6 279.5,215.4 279.5,220.7 	"/>
	<path fill="#FCF6D7" d="M290.5,220.2c-0.1,0.1-0.1,0.3-0.2,0.4c-0.1,0.1-0.3,0.2-0.4,0.2c-0.2,0-0.3-0.1-0.4-0.2
		c-0.1-0.1-0.1-0.3-0.2-0.4c0-0.2-0.1-0.4-0.1-0.6H288v1.6c0.2,0.2,0.5,0.4,0.8,0.5s0.6,0.1,0.9,0.1c0.3,0,0.6-0.1,0.8-0.2
		s0.5-0.3,0.7-0.5s0.4-0.5,0.5-0.8c0.1-0.3,0.2-0.7,0.2-1c0-0.2,0-0.4,0-0.7c0-0.3,0-0.5,0-0.8s0-0.6,0-0.9s-0.1-0.6-0.1-0.9
		s-0.1-0.5-0.2-0.8s-0.2-0.4-0.4-0.6c-0.3-0.2-0.5-0.4-0.8-0.6c-0.3-0.1-0.6-0.2-0.9-0.2c-0.3,0-0.6,0.1-0.8,0.2
		c-0.3,0.2-0.5,0.4-0.7,0.7c-0.1,0.2-0.3,0.4-0.3,0.7c-0.1,0.3-0.1,0.5-0.1,0.8c0,0.3,0,0.5,0.1,0.8c0.1,0.3,0.1,0.5,0.3,0.7
		c0.1,0.2,0.3,0.4,0.5,0.6c0.2,0.2,0.4,0.3,0.6,0.3c0.3,0.1,0.5,0.1,0.7,0s0.4-0.1,0.5-0.2c0.1-0.1,0.2-0.2,0.3-0.3s0.1-0.2,0.2-0.3
		v1.6C290.6,219.8,290.5,220,290.5,220.2z M290.2,216.8c0,0.2-0.1,0.3-0.2,0.4c-0.1,0.1-0.2,0.2-0.2,0.3c-0.1,0.1-0.2,0.1-0.3,0.1
		c-0.1,0-0.2,0-0.3-0.1c-0.1-0.1-0.2-0.2-0.3-0.3c-0.1-0.1-0.1-0.3-0.2-0.4s-0.1-0.3-0.1-0.5s0-0.3,0.1-0.5s0.1-0.3,0.2-0.4
		c0.1-0.1,0.2-0.2,0.3-0.3c0.1-0.1,0.2-0.1,0.3-0.1c0.1,0,0.2,0,0.3,0.1c0.1,0.1,0.2,0.2,0.2,0.3c0.1,0.1,0.1,0.3,0.2,0.4
		s0.1,0.3,0.1,0.5S290.3,216.6,290.2,216.8z"/>
	<polygon fill="#FCF6D7" points="301.6,213.9 297.1,213.9 297.1,215.8 298.3,215.8 298.3,214.9 299.9,214.9 298.3,220.7 
		297.8,220.7 297.8,221.8 300.4,221.8 300.4,220.7 300,220.7 301.6,214.3 	"/>
	<path fill="#FCF6D7" d="M309.1,217.2c-0.2,0.3-0.5,0.6-0.8,0.9c-0.3,0.3-0.5,0.6-0.8,1c-0.2,0.4-0.4,0.8-0.6,1.2s-0.2,0.9-0.2,1.5
		h4.8v-2.4h-1.2v0.8h-2c0.1-0.3,0.3-0.5,0.5-0.8c0.2-0.2,0.4-0.5,0.7-0.7c0.2-0.2,0.5-0.4,0.8-0.7c0.3-0.2,0.5-0.5,0.7-0.7
		c0.2-0.2,0.4-0.5,0.5-0.8c0.1-0.3,0.2-0.6,0.2-1c0-0.4-0.1-0.7-0.3-0.9c-0.2-0.2-0.4-0.4-0.7-0.6c-0.3-0.1-0.6-0.2-1-0.2
		c-0.4,0-0.7,0-1,0.1c-0.3,0.1-0.6,0.2-0.9,0.4c-0.3,0.2-0.5,0.4-0.6,0.7l0.1,1h1.4c0-0.4,0.1-0.7,0.2-0.9c0.1-0.2,0.3-0.3,0.4-0.3
		c0.2,0,0.3,0.1,0.4,0.2s0.2,0.4,0.2,0.7c0,0.3-0.1,0.5-0.2,0.8S309.4,217,309.1,217.2z"/>
	<polygon fill="#FCF6D7" points="84.6,273.3 87.6,276.3 97.7,263.4 97.6,263.3 	"/>
	<path fill="#FCF6D7" d="M140.6,288.4c-0.8-0.3-1.5-0.2-2,0.4c-0.6,0.5-1.1,1.5-1.7,2.9l-5.3,14.1c-0.7,1.8-1,3.1-1,3.9
		c0,0.8,0.4,1.4,1.3,1.7s1.5,0.2,2.1-0.5s1.1-1.8,1.8-3.5l5.3-14.1c0.5-1.4,0.8-2.5,0.8-3.3C141.8,289.2,141.4,288.7,140.6,288.4z"
		/>
	<path fill="#FCF6D7" d="M77.2,256.9c0.4-0.7,0.3-1.4-0.2-2.1l-1.2-1.7l-9.6,6.8l1,1.4c0.6,0.8,1.2,1.2,2,1.1
		c0.8-0.1,1.9-0.6,3.3-1.6l2.1-1.5C76,258.4,76.9,257.6,77.2,256.9z"/>
	<path fill="#FCF6D7" d="M308.8,100.2c-0.2,0.2-0.5,0.3-0.7,0.5c-0.1-0.2-0.2-0.3-0.3-0.5c-2.4,1.7-4.8,3.4-7.3,5
		c20,31.8,25.1,67.3,19,100.3h-41.8v3.1h41.2c-1.2,5.9-2.9,11.8-4.8,17.5h-42.2c-14.5,26.5-43.7,46.1-71.4,53.1
		c1.3-2.7,2.5-5.4,3.8-8c7.3-15.1,14.6-30.2,21.9-45.3c5.7-11.8,11.4-23.5,17.1-35.2c0.2-0.5,0.4-1,0.6-1.5l-0.4-0.2
		c-0.1,0.3-0.3,0.5-0.4,0.8c-2.4,5-4.8,9.9-7.2,14.9c-7,14.6-14.1,29.2-21.1,43.7c-5,10.3-10,20.7-15,31c-1.6,0.4-3.1,0.7-4.6,1
		c11.3-30.5,22.6-60.9,33.9-91.4c-0.1-0.1-0.2-0.1-0.3-0.2c-0.2,0.3-0.5,0.6-0.6,1c-11.2,30.2-22.4,60.4-33.6,90.6
		c-1.5,0.3-3,0.5-4.4,0.7c7.6-30.7,15.2-61.5,22.8-92.2c-0.5,0.1-0.7,0.4-0.8,0.7c-7.6,30.5-15.1,61.1-22.7,91.6
		c-1.4,0.2-2.8,0.3-4.2,0.4c3.8-30.9,7.6-61.8,11.5-92.6c-0.2,0-0.5-0.1-0.7-0.1c-3.8,30.9-7.6,61.8-11.5,92.8
		c-1.4,0.1-2.8,0.1-4.2,0.2V189c-0.2,0-0.3,0-0.5,0c-0.1,0.3-0.2,0.6-0.2,0.9c0,30.7,0.1,61.3,0.1,92c-1.3,0-2.7-0.1-4.1-0.1
		c-0.3-2.7-0.7-5.4-1-8.2c-0.5-3.6-0.9-7.2-1.4-10.8c-0.4-3.4-0.8-6.7-1.2-10.1c-0.4-3.5-0.9-7-1.3-10.6c-0.4-3.3-0.8-6.5-1.2-9.8
		c-0.4-3.6-0.9-7.2-1.3-10.8c-0.4-3.4-0.8-6.7-1.2-10.1c-0.4-3.4-0.9-6.9-1.3-10.3c-0.4-3.3-0.7-6.5-1.2-9.8
		c-0.1-0.8-0.4-1.7-0.6-2.5l-0.4,0.1c3.8,30.9,7.6,61.8,11.5,92.7c-1.4-0.1-2.8-0.2-4.2-0.4c-7.6-30.6-15.2-61.3-22.8-91.9
		c-0.1-0.2-0.3-0.4-0.4-0.6c-0.1,0-0.2,0.1-0.3,0.1c7.6,30.8,15.2,61.5,22.8,92.3c-1.5-0.2-2.9-0.4-4.4-0.7c-5-13.5-10.1-27-15-40.6
		c-7.9-21.8-18.2-49.4-19.4-50.8c11.1,30.5,22.4,60.9,33.7,91.3c-1.5-0.3-3.1-0.6-4.6-1c-14.6-30.2-29.2-60.4-43.7-90.6
		c-0.2,0.1-0.4,0.2-0.6,0.3c14.6,30.1,29.1,60.1,43.7,90.2c-27.9-6.8-57.5-26.6-72.1-53.3H46.4c-2-5.7-3.6-11.6-4.8-17.5H83v-3.1H41
		c-6.2-33-1-68.5,19-100.3c-2.4-1.6-4.9-3.3-7.3-5c-0.1,0.2-0.2,0.3-0.3,0.5c-0.2-0.2-0.5-0.3-0.7-0.5
		c-15.9,24.9-23.1,52.4-22.9,79.5c-0.7,48.4,22.1,92.4,57.7,120.9c24.3,20,55.2,32.6,90.2,33.3c0.1,0,0.2,0,0.3,0c0.9,0,1.8,0,2.8,0
		h0h0c0.2,0,0.3,0,0.5,0c0.2,0,0.3,0,0.5,0h0c0.9,0,1.8,0,2.8,0c0.1,0,0.2,0,0.3,0c35.1-0.7,65.9-13.4,90.2-33.3
		c35.6-28.5,58.4-72.5,57.7-120.9C331.9,152.6,324.8,125.1,308.8,100.2z M69.2,267.1c-0.5,0-1-0.1-1.4-0.3c-2.3-3.1-4.5-6.3-6.5-9.5
		l25.5-17.9l4,5.7c1.4,2,1.9,3.7,1.6,5.2c-0.3,1.5-1.6,3-3.7,4.5l-0.8,0.6c-2.9,2-5.2,2.5-6.9,1.4c0.7,2.3-0.7,4.7-4.3,7.2l-0.7,0.5
		C73.3,266.3,71,267.2,69.2,267.1z M85.4,286.6c-1.1-1-2.2-2.1-3.3-3.2l3.1-4l-3.7-3.7l-3.9,3c-1.1-1.2-2.1-2.3-3.1-3.5l25.4-18.7
		l4.6,4.6L85.4,286.6z M100.8,299.2c-3-2.2-6-4.4-8.9-6.8L111,267l3.9,3l-17,22.5l5,3.8L100.8,299.2z M116.9,309.1
		c-3.3-1.7-6.6-3.6-9.7-5.6l15.7-28l4.3,2.4l-13.8,24.6l5.4,3.1L116.9,309.1z M145.6,295.3l-5.2,13.9c-1.1,3-2.5,5-4.1,6
		c-1.2,0.8-2.7,1.1-4.3,0.7c-1.1-0.4-2.2-0.9-3.4-1.3c-1.3-0.8-2.1-1.9-2.5-3.2c-0.5-1.9-0.2-4.3,0.9-7.2l5.2-13.9
		c2.1-5.6,5.4-7.5,10-5.8c2.3,0.9,3.8,2.2,4.3,4S146.6,292.5,145.6,295.3z M165.2,299.5l-2.8,14.6c-0.6,3.1-1.6,5.3-3,6.6
		c-1.4,1.3-3.3,1.7-5.8,1.3c-2.4-0.5-4.1-1.6-4.9-3.3c-0.8-1.8-1-4.2-0.4-7.3l2.8-14.6c1.1-5.8,4.1-8.3,8.8-7.4
		c2.5,0.5,4.1,1.6,4.9,3.2C165.6,294.4,165.7,296.7,165.2,299.5z M185.5,324.3l-3.5-0.1l-6.7-20.3l0.1,8.5l-0.2,11.6l-4.5-0.1
		l0.6-32.4l3.9,0.1l6.5,19.6l-0.2-8.8l0.2-10.6l4.4,0.1L185.5,324.3z M221.8,318.2l-4.7,1.4l-9.3-31l10.7-3.2l1.2,4.1l-5.9,1.8
		l2.5,8.3l5.5-1.7l1.2,4.1l-5.5,1.7L221.8,318.2z M235.6,313l-13-29.5l4.5-2l12.9,29.4C238.6,311.6,237.1,312.3,235.6,313z
		 M248.8,306.3L232.5,279l9.3-5.6l2.2,3.7l-5.1,3l4.8,8.1l4.8-2.9l2.1,3.6l-4.8,2.9l5.3,8.9l5.3-3.1l1.7,2.9
		C255.1,302.5,252,304.4,248.8,306.3z M273.9,287.7c-2.3,2.2-4.7,4.2-7.2,6.2c-0.4,0-0.8-0.1-1.2-0.2c-1.8-0.6-3.7-2.1-5.6-4.5
		l-1.8-2.2l3.6-3l2.1,2.5c1.1,1.4,2.1,2.3,2.8,2.7s1.4,0.3,2-0.2c0.7-0.5,0.9-1.1,0.7-1.8c-0.2-0.6-0.7-1.5-1.5-2.5
		c-0.9-1.1-1.8-1.8-2.8-2.3s-2.3-0.8-3.8-1l-3.4-0.4c-1.6-0.2-3-0.6-4.3-1.2c-1.3-0.6-2.4-1.5-3.5-2.8c-1.7-2.1-2.6-3.9-2.6-5.6
		c0-1.7,0.9-3.3,2.9-4.9c1.9-1.6,3.7-2.1,5.4-1.5c1.6,0.6,3.4,2,5.2,4.3l1.3,1.6l-3.5,2.9l-1.5-1.8c-1-1.2-1.8-2-2.5-2.4
		s-1.3-0.3-1.9,0.2s-0.9,1-0.8,1.6c0.1,0.6,0.4,1.3,1.1,2.1c0.7,0.8,1.3,1.3,2,1.6c0.7,0.3,1.6,0.5,2.9,0.6l3.9,0.5
		c2,0.3,3.7,0.8,5.1,1.5c1.5,0.7,2.8,1.8,3.9,3.1c1.9,2.3,2.9,4.4,3.1,6.2C274,287.4,274,287.5,273.9,287.7z M282.5,279.2L263,261.1
		l-2.6,2.8l-3.1-2.9l8.4-9.1l3.1,2.9l-2.5,2.7l19.5,18C284.7,276.8,283.6,278,282.5,279.2z M298.4,258.6l-3.5-1.8l-3,4.3l3,2.6
		c-0.9,1.3-1.8,2.5-2.8,3.8l-22.6-20.8l3.7-5.4l27.6,13.4C300,256.1,299.2,257.4,298.4,258.6z"/>
	<path fill="#FCF6D7" d="M159.1,293.6c-0.8-0.2-1.5,0.1-1.9,0.7c-0.5,0.6-0.8,1.7-1.1,3.2l-2.9,14.8c-0.4,1.9-0.5,3.2-0.3,4
		c0.1,0.8,0.7,1.3,1.5,1.4c0.9,0.2,1.5-0.1,2-0.8c0.4-0.7,0.8-2,1.2-3.8l2.9-14.8c0.3-1.5,0.4-2.6,0.2-3.4
		C160.4,294.2,159.9,293.8,159.1,293.6z"/>
	<path fill="#FCF6D7" d="M81.5,253.4c0.6-0.1,1.6-0.6,3-1.6l1.6-1.1c1-0.7,1.6-1.4,1.8-1.9c0.2-0.5,0-1.1-0.5-1.8l-1-1.4l-7.6,5.3
		l1,1.5C80.4,253.2,80.9,253.5,81.5,253.4z"/>
	<polygon fill="#FCF6D7" points="291.3,255 276.7,247.6 276.6,247.7 288.9,258.5 	"/>
</g>
</svg>
