<?xml version="1.0" encoding="utf-8"?>
<!-- Generator: Adobe Illustrator 18.0.0, SVG Export Plug-In . SVG Version: 6.00 Build 0)  -->
<!DOCTYPE svg PUBLIC "-//W3C//DTD SVG 1.1//EN" "http://www.w3.org/Graphics/SVG/1.1/DTD/svg11.dtd">
<svg version="1.1" id="Layer_1" xmlns="http://www.w3.org/2000/svg" xmlns:xlink="http://www.w3.org/1999/xlink" x="0px" y="0px"
	 viewBox="0 0 360 360" enable-background="new 0 0 360 360" xml:space="preserve">
<g>
	
		<rect x="59.3" y="86.8" transform="matrix(0.7501 0.6613 -0.6613 0.7501 77.7093 -27.309)" fill="#FCF8D9" width="31.4" height="4.8"/>
	<polygon fill="#FCF8D9" points="96.1,90 88.7,81.5 83.1,75.5 101.1,85.7 103.6,83.5 83,59.8 79.8,62.6 86.5,70.4 92.4,76.6 
		75,66.8 72.2,69.2 92.8,92.9 	"/>
	<polygon fill="#FCF8D9" points="95.3,56.1 110.2,79 114.2,76.4 99.3,53.5 102.3,51.6 100.1,48.1 90,54.6 92.3,58.1 	"/>
	<polygon fill="#FCF8D9" points="130.6,67.7 128.8,64 123.5,66.6 119.1,57.6 124,55.2 122.3,51.6 117.4,54 113.4,45.8 118.6,43.3 
		116.8,39.5 107.3,44.1 121,72.4 	"/>
	<path fill="#FCF8D9" d="M140.2,64.2l-4.5-14.1l1.5-0.4c1-0.3,1.7-0.3,2.1,0.1c0.5,0.3,0.9,1.2,1.3,2.5c2.2,6.9,3.4,10.5,3.6,10.7
		l4.6-1.4c-0.2-0.2-0.9-2.3-2.1-6.1c-1.2-3.8-2.2-6.3-3-7.4s-1.7-1.6-2.8-1.4c0.9-0.7,1.5-1.5,1.5-2.6c0.1-1.1-0.2-2.5-0.7-4.3
		c-0.6-1.8-1.2-3.3-1.8-4.3c-0.6-1.1-1.4-1.8-2.4-2.2c-1-0.4-2.2-0.3-3.8,0.2l-7.5,2.4l9.4,30L140.2,64.2z M131.9,37.8l1.5-0.5
		c1-0.3,1.7-0.3,2.1,0.2c0.4,0.4,0.9,1.4,1.4,3.1l0.1,0.2c0.4,1.3,0.7,2.3,0.8,3c0.1,0.7,0,1.2-0.2,1.5c-0.2,0.3-0.6,0.6-1.2,0.8
		l-1.8,0.6L131.9,37.8z"/>
	<polygon fill="#FCF8D9" points="158.7,59.6 157.1,48.5 155.7,40.4 165.2,58.7 168.6,58.2 164.1,27.1 159.9,27.7 161.3,37.9 
		162.9,46.3 153.6,28.6 149.9,29.2 154.4,60.3 	"/>
	<path fill="#FCF8D9" d="M178.7,52.4l5.1,0.1l0.6,5.6l4.5,0.1l-4.2-31.5l-6.3-0.1l-5.1,31.3l4.6,0.1L178.7,52.4z M181.5,32.8
		L181.5,32.8l1.9,15.8l-4.1-0.1L181.5,32.8z"/>
	<polygon fill="#FCF8D9" points="199.8,59.8 203.9,32.8 207.4,33.4 208.1,29.3 196.2,27.4 195.6,31.5 199.2,32.1 195.1,59.1 	"/>
	
		<rect x="198.4" y="44.5" transform="matrix(-0.2562 0.9666 -0.9666 -0.2562 314.3359 -148.1098)" fill="#FCF8D9" width="31.4" height="4.8"/>
	<path fill="#FCF8D9" d="M220.7,63.2c0.5,1.8,1.8,3.2,4.1,4.1c2.2,0.9,4.1,0.9,5.7-0.1c1.6-1,2.9-2.9,4.1-5.8l5.4-13.3
		c1.1-2.6,1.4-4.8,0.9-6.6c-0.4-1.8-1.8-3.1-4-4c-4.4-1.8-7.6,0-9.8,5.4l-5.4,13.3C220.5,59.1,220.2,61.4,220.7,63.2z M226.1,58.1
		l5.5-13.6c0.6-1.4,1.1-2.3,1.7-2.8s1.2-0.6,2-0.3c0.8,0.3,1.1,0.8,1.1,1.6c0,0.7-0.3,1.8-0.8,3.2l-5.5,13.6
		c-0.7,1.7-1.3,2.8-1.8,3.4c-0.5,0.6-1.2,0.7-2,0.4c-0.8-0.3-1.2-0.9-1.2-1.7C225.1,61,225.4,59.8,226.1,58.1z"/>
	<polygon fill="#FCF8D9" points="240.3,74.5 246.1,64.8 250.2,57.6 245.9,77.9 248.8,79.6 265.1,52.8 261.4,50.5 256.1,59.3 
		251.9,66.8 256,47.3 252.8,45.3 236.5,72.2 	"/>
	<path fill="#FCF8D9" d="M256.2,85.4l4.2-3.8l3.9,3.3l-3.1,4.7l3.4,2.9l16.8-27l-4.8-4.1l-23.8,21L256.2,85.4z M274.9,68.2
		L274.9,68.2l-8.6,13.4l-3.1-2.7L274.9,68.2z"/>
	<polygon fill="#FCF8D9" points="275,104.3 278.1,101.6 274.1,97 294.6,78.9 291.4,75.3 267.9,96.1 	"/>
	<path fill="#FCF8D9" d="M48.4,221.4v1h4.9l0.2-2.5h-0.9c0,0.3-0.1,0.5-0.2,0.7c-0.1,0.2-0.3,0.3-0.4,0.4c-0.2,0.1-0.4,0.2-0.6,0.2
		c-0.2,0.1-0.4,0.1-0.5,0.1h-0.5v-2.6H52v-1h-1.6v-2.2h0.6c0.1,0,0.3,0,0.4,0.1c0.2,0,0.3,0.1,0.5,0.2c0.1,0.1,0.3,0.2,0.4,0.4
		s0.2,0.4,0.2,0.6h0.9l-0.2-2.2h-4.7v1h0.5v5.8H48.4z"/>
	<path fill="#FCF8D9" d="M59,220.1l-0.3,1.6c0.1,0.1,0.3,0.3,0.5,0.4c0.2,0.1,0.5,0.2,0.8,0.3s0.8,0.1,1.3,0.1c0.5,0,1-0.1,1.3-0.2
		c0.4-0.1,0.7-0.3,0.9-0.5c0.2-0.2,0.4-0.5,0.5-0.8c0.1-0.3,0.2-0.6,0.2-1c0-0.3-0.1-0.6-0.2-0.8c-0.1-0.2-0.3-0.4-0.5-0.6
		c-0.2-0.2-0.4-0.3-0.7-0.5c-0.3-0.1-0.6-0.3-0.9-0.4c-0.3-0.1-0.6-0.2-0.8-0.3c-0.2-0.1-0.4-0.2-0.5-0.3c-0.1-0.1-0.2-0.2-0.3-0.4
		s-0.1-0.4-0.1-0.6c0-0.3,0.1-0.4,0.3-0.6s0.4-0.2,0.6-0.3c0.2,0,0.5,0,0.7,0s0.4,0.1,0.5,0.3v0.9h1.1l0.2-1.4
		c-0.2-0.1-0.4-0.3-0.8-0.4c-0.3-0.1-0.6-0.2-1-0.3s-0.7-0.1-1.1,0c-0.4,0-0.7,0.1-1,0.3c-0.3,0.2-0.5,0.4-0.7,0.8
		c-0.2,0.3-0.3,0.8-0.3,1.3c0,0.4,0.1,0.8,0.3,1.1c0.2,0.3,0.4,0.5,0.7,0.7s0.5,0.3,0.8,0.4c0.3,0.1,0.5,0.2,0.7,0.2
		c0.2,0.1,0.3,0.1,0.5,0.2s0.3,0.1,0.4,0.2c0.1,0.1,0.2,0.2,0.3,0.3c0.1,0.1,0.1,0.3,0.1,0.5c0,0.2,0,0.4-0.1,0.5
		c-0.1,0.1-0.2,0.2-0.4,0.3c-0.2,0.1-0.3,0.1-0.5,0.1c-0.2,0-0.4,0-0.6,0s-0.4-0.1-0.5-0.1c-0.2-0.1-0.3-0.1-0.4-0.2v-0.9H59z"/>
	<path fill="#FCF8D9" d="M73.9,215.9c0.3,0.2,0.4,0.5,0.4,0.9h0.9l-0.2-2.2h-5.8l-0.2,2.2H70c0-0.2,0-0.4,0.1-0.6
		c0.1-0.2,0.2-0.3,0.4-0.4c0.1-0.1,0.3-0.1,0.5-0.2c0.2,0,0.3-0.1,0.5-0.1v5.8h-0.6v1h2.6v-1h-0.6v-5.8
		C73.3,215.6,73.6,215.7,73.9,215.9z"/>
	<rect x="80.2" y="220.7" fill="#FCF8D9" width="1.6" height="1.6"/>
	<polygon fill="#FCF8D9" points="278.2,221.7 278.2,222.8 282.3,222.8 282.3,221.7 281,221.7 281,214.9 280.2,214.9 278.2,215.6 
		278.2,216.6 279.5,216.4 279.5,221.7 	"/>
	<path fill="#FCF8D9" d="M290.5,221.2c-0.1,0.1-0.1,0.3-0.2,0.4c-0.1,0.1-0.3,0.2-0.4,0.2c-0.2,0-0.3-0.1-0.4-0.2
		c-0.1-0.1-0.1-0.3-0.2-0.4c0-0.2-0.1-0.4-0.1-0.6H288v1.6c0.2,0.2,0.5,0.4,0.8,0.5s0.6,0.1,0.9,0.1c0.3,0,0.6-0.1,0.8-0.2
		s0.5-0.3,0.7-0.5s0.4-0.5,0.5-0.8c0.1-0.3,0.2-0.7,0.2-1c0-0.2,0-0.4,0-0.7c0-0.3,0-0.5,0-0.8s0-0.6,0-0.9s-0.1-0.6-0.1-0.9
		s-0.1-0.5-0.2-0.8s-0.2-0.4-0.4-0.6c-0.3-0.2-0.5-0.4-0.8-0.6c-0.3-0.1-0.6-0.2-0.9-0.2c-0.3,0-0.6,0.1-0.8,0.2
		c-0.3,0.2-0.5,0.4-0.7,0.7c-0.1,0.2-0.3,0.4-0.3,0.7c-0.1,0.3-0.1,0.5-0.1,0.8c0,0.3,0,0.5,0.1,0.8c0.1,0.3,0.1,0.5,0.3,0.7
		c0.1,0.2,0.3,0.4,0.5,0.6c0.2,0.2,0.4,0.3,0.6,0.3c0.3,0.1,0.5,0.1,0.7,0s0.4-0.1,0.5-0.2c0.1-0.1,0.2-0.2,0.3-0.3s0.1-0.2,0.2-0.3
		v1.6C290.6,220.8,290.5,221,290.5,221.2z M290.2,217.8c0,0.2-0.1,0.3-0.2,0.4c-0.1,0.1-0.2,0.2-0.2,0.3c-0.1,0.1-0.2,0.1-0.3,0.1
		c-0.1,0-0.2,0-0.3-0.1c-0.1-0.1-0.2-0.2-0.3-0.3c-0.1-0.1-0.1-0.3-0.2-0.4s-0.1-0.3-0.1-0.5s0-0.3,0.1-0.5s0.1-0.3,0.2-0.4
		c0.1-0.1,0.2-0.2,0.3-0.3c0.1-0.1,0.2-0.1,0.3-0.1c0.1,0,0.2,0,0.3,0.1c0.1,0.1,0.2,0.2,0.2,0.3c0.1,0.1,0.1,0.3,0.2,0.4
		s0.1,0.3,0.1,0.5S290.3,217.6,290.2,217.8z"/>
	<polygon fill="#FCF8D9" points="301.6,214.9 297.1,214.9 297.1,216.8 298.3,216.8 298.3,215.9 299.9,215.9 298.3,221.7 
		297.8,221.7 297.8,222.8 300.4,222.8 300.4,221.7 300,221.7 301.6,215.3 	"/>
	<path fill="#FCF8D9" d="M309.1,218.2c-0.2,0.3-0.5,0.6-0.8,0.9c-0.3,0.3-0.5,0.6-0.8,1c-0.2,0.4-0.4,0.8-0.6,1.2s-0.2,0.9-0.2,1.5
		h4.8v-2.4h-1.2v0.8h-2c0.1-0.3,0.3-0.5,0.5-0.8c0.2-0.2,0.4-0.5,0.7-0.7c0.2-0.2,0.5-0.4,0.8-0.7c0.3-0.2,0.5-0.5,0.7-0.7
		c0.2-0.2,0.4-0.5,0.5-0.8c0.1-0.3,0.2-0.6,0.2-1c0-0.4-0.1-0.7-0.3-0.9c-0.2-0.2-0.4-0.4-0.7-0.6c-0.3-0.1-0.6-0.2-1-0.2
		c-0.4,0-0.7,0-1,0.1c-0.3,0.1-0.6,0.2-0.9,0.4c-0.3,0.2-0.5,0.4-0.6,0.7l0.1,1h1.4c0-0.4,0.1-0.7,0.2-0.9c0.1-0.2,0.3-0.3,0.4-0.3
		c0.2,0,0.3,0.1,0.4,0.2s0.2,0.4,0.2,0.7c0,0.3-0.1,0.5-0.2,0.8S309.4,218,309.1,218.2z"/>
	<polygon fill="#FCF8D9" points="84.6,274.3 87.6,277.3 97.7,264.4 97.6,264.3 	"/>
	<path fill="#FCF8D9" d="M81.5,254.4c0.6-0.1,1.6-0.6,3-1.6l1.6-1.1c1-0.7,1.6-1.4,1.8-1.9c0.2-0.5,0-1.1-0.5-1.8l-1-1.4l-7.6,5.3
		l1,1.5C80.4,254.2,80.9,254.5,81.5,254.4z"/>
	<path fill="#FCF8D9" d="M159.1,294.6c-0.8-0.2-1.5,0.1-1.9,0.7c-0.5,0.6-0.8,1.7-1.1,3.2l-2.9,14.8c-0.4,1.9-0.5,3.2-0.3,4
		c0.1,0.8,0.7,1.3,1.5,1.4c0.9,0.2,1.5-0.1,2-0.8c0.4-0.7,0.8-2,1.2-3.8l2.9-14.8c0.3-1.5,0.4-2.6,0.2-3.4
		C160.4,295.2,159.9,294.8,159.1,294.6z"/>
	<path fill="#FCF8D9" d="M140.6,289.4c-0.8-0.3-1.5-0.2-2,0.4c-0.6,0.5-1.1,1.5-1.7,2.9l-5.3,14.1c-0.7,1.8-1,3.1-1,3.9
		c0,0.8,0.4,1.4,1.3,1.7s1.5,0.2,2.1-0.5s1.1-1.8,1.8-3.5l5.3-14.1c0.5-1.4,0.8-2.5,0.8-3.3C141.8,290.2,141.4,289.7,140.6,289.4z"
		/>
	<polygon fill="#FCF8D9" points="291.3,256 276.7,248.6 276.6,248.7 288.9,259.5 	"/>
	<path fill="#FCF8D9" d="M308.8,101.2c-0.2,0.2-0.5,0.3-0.7,0.5c-0.1-0.2-0.2-0.3-0.3-0.5c-2.4,1.7-4.8,3.4-7.3,5
		c20,31.8,25.1,67.3,19,100.3h-41.8v3.1h41.2c-1.2,5.9-2.9,11.8-4.8,17.5h-42.2c-14.6,26.6-43.9,46.3-71.7,53.2
		c13.4-17,26.6-34.2,39.3-51.7c14.5-19.9,26.1-41.3,29.5-66.2c2.1-15.7,0.5-30.9-8.4-44.5c-2.8-4.3-6.5-7.9-9.8-11.8
		c0,2.7,1.1,4.3,2,6.1c0.9,1.8,1.8,3.6,2.5,5.4c7.9,20.9,7.3,41.8,0.5,62.9c-8.8,27.2-23.9,50.8-40.9,73.3c-3.1,4-7.4,4.3-12.8,3.9
		c1.3-2.7,2.3-4.9,3.4-7c4.8-9.8,9.9-19.5,14.2-29.6c13.5-31.5,22.9-63.7,15.6-98.6c-2.3-11.1-5.9-21.6-13.1-30.6
		c-7.8-9.8-19.7-15.4-30.4-14.1c7.3,7.3,10.9,16.3,12.6,25.9c1.9,11.3,3.6,22.6,4.3,34c1.6,26.5-2.1,52.7-7.8,78.5
		c-3.2,14.5-7.6,28.7-11.5,43c-3.1,0.1-5.3,0.3-7.6,0.3c-2.5,0.1-4.9,0-7.6,0c-8.8-26.8-15.2-53.5-18.4-81
		c-2.2-19.4-2.5-38.8,0-58.2c2-15.3,4.1-30.6,15.7-43.1c-1.6-0.1-2.5-0.3-3.3-0.2c-1.5,0.1-3,0.3-4.4,0.7
		c-17.3,4.1-27.3,16.1-32.5,32c-6.5,19.7-7.8,40-3.9,60.4c5.4,28.4,16.7,54.5,30,80c1.2,2.3,2.4,4.6,3.8,7.4c-6.1,1-10.3,0-13.5-4.4
		c-14-19-27.1-38.6-36.1-60.6c-5.2-12.8-9.1-25.9-9.5-39.7c-0.5-18.1,2.7-35.4,13.9-50.5c-11.9,7.4-19.3,18-22.4,31.4
		c-3.5,15.4-2.5,30.6,2.3,45.7c6.8,21.2,18.3,39.7,31.6,57.3c11.1,14.7,22.6,29.1,33.7,43.9c0,0,0,0,0,0
		c-28.3-6.4-58.7-26.5-73.6-53.6H46.4c-2-5.7-3.6-11.6-4.8-17.5H83v-3.1H41c-6.2-33-1-68.5,19-100.3c-2.4-1.6-4.9-3.3-7.3-5
		c-0.1,0.2-0.2,0.3-0.3,0.5c-0.2-0.2-0.5-0.3-0.7-0.5c-15.9,24.9-23.1,52.4-22.9,79.5c-0.7,48.4,22.1,92.4,57.7,120.9
		c24.3,20,55.2,32.6,90.2,33.3c0.1,0,0.2,0,0.3,0c0.9,0,1.8,0,2.8,0h0h0c0.2,0,0.3,0,0.5,0c0.2,0,0.3,0,0.5,0h0c0.9,0,1.8,0,2.8,0
		c0.1,0,0.2,0,0.3,0c35.1-0.7,65.9-13.4,90.2-33.3c35.6-28.5,58.4-72.5,57.7-120.9C331.9,153.6,324.8,126.1,308.8,101.2z
		 M175.5,313.5l-0.2,11.6l-4.5-0.1l0.6-32.4l3.9,0.1l6.5,19.6l-0.2-8.8l0.2-10.6l4.4,0.1l-0.6,32.4l-3.5-0.1l-6.7-20.3L175.5,313.5z
		 M64.3,264.9l-4.1-5.9l26.6-18.6l4,5.7c1.4,2,1.9,3.7,1.6,5.2c-0.3,1.5-1.6,3-3.7,4.5l-0.8,0.6c-2.9,2-5.2,2.5-6.9,1.4
		c0.7,2.3-0.7,4.7-4.3,7.2l-0.7,0.5c-2.7,1.8-4.9,2.7-6.7,2.6S65.8,267,64.3,264.9z M84.8,288.4l-3.2-3.3l3.6-4.6l-3.7-3.7l-4.6,3.6
		l-3.3-3.4l26.3-19.4l4.6,4.6L84.8,288.4z M100.4,300.6l-8.9-6.7L111,268l3.9,3l-17,22.5l5,3.8L100.4,300.6z M116.8,310.3l-9.7-5.5
		l15.9-28.3l4.3,2.4l-13.8,24.6l5.4,3.1L116.8,310.3z M145.6,296.3l-5.2,13.9c-1.1,3-2.5,5-4.1,6c-1.6,1.1-3.6,1.2-5.9,0.3
		c-2.3-0.9-3.8-2.3-4.3-4.1s-0.2-4.3,0.9-7.2l5.2-13.9c2.1-5.6,5.4-7.5,10-5.8c2.3,0.9,3.8,2.2,4.3,4S146.6,293.5,145.6,296.3z
		 M165.2,300.5l-2.8,14.6c-0.6,3.1-1.6,5.3-3,6.6c-1.4,1.3-3.3,1.7-5.8,1.3c-2.4-0.5-4.1-1.6-4.9-3.3c-0.8-1.8-1-4.2-0.4-7.3
		l2.8-14.6c1.1-5.8,4.1-8.3,8.8-7.4c2.5,0.5,4.1,1.6,4.9,3.2C165.6,295.4,165.7,297.7,165.2,300.5z M180.2,325.9
		c-4.3,0-8.5-0.3-12.6-0.7c4.3,0.4,8.5,0.6,12.9,0.6c3.4,0,6.8-0.1,10.2-0.4C187.2,325.7,183.8,325.9,180.2,325.9z M221.8,319.2
		l-4.7,1.4l-9.3-31l10.7-3.2l1.2,4.1l-5.9,1.8l2.5,8.3l5.5-1.7l1.2,4.1l-5.5,1.7L221.8,319.2z M235.7,314.2l-13-29.7l4.5-2l13,29.7
		L235.7,314.2z M249.1,307.8L232.5,280l9.3-5.6l2.2,3.7l-5.1,3l4.8,8.1l4.8-2.9l2.1,3.6l-4.8,2.9l5.3,8.9l5.3-3.1l2.2,3.7
		L249.1,307.8z M271.2,293.2c-2,1.6-3.9,2.1-5.7,1.5c-1.8-0.6-3.7-2.1-5.6-4.5l-1.8-2.2l3.6-3l2.1,2.5c1.1,1.4,2.1,2.3,2.8,2.7
		s1.4,0.3,2-0.2c0.7-0.5,0.9-1.1,0.7-1.8c-0.2-0.6-0.7-1.5-1.5-2.5c-0.9-1.1-1.8-1.8-2.8-2.3s-2.3-0.8-3.8-1l-3.4-0.4
		c-1.6-0.2-3-0.6-4.3-1.2c-1.3-0.6-2.4-1.5-3.5-2.8c-1.7-2.1-2.6-3.9-2.6-5.6c0-1.7,0.9-3.3,2.9-4.9c1.9-1.6,3.7-2.1,5.4-1.5
		c1.6,0.6,3.4,2,5.2,4.3l1.3,1.6l-3.5,2.9l-1.5-1.8c-1-1.2-1.8-2-2.5-2.4s-1.3-0.3-1.9,0.2s-0.9,1-0.8,1.6c0.1,0.6,0.4,1.3,1.1,2.1
		c0.7,0.8,1.3,1.3,2,1.6c0.7,0.3,1.6,0.5,2.9,0.6l3.9,0.5c2,0.3,3.7,0.8,5.1,1.5c1.5,0.7,2.8,1.8,3.9,3.1c1.9,2.3,2.9,4.4,3.1,6.2
		S273.1,291.6,271.2,293.2z M283.6,281.2L263,262.1l-2.6,2.8l-3.1-2.9l8.4-9.1l3.1,2.9l-2.5,2.7l20.7,19.1L283.6,281.2z
		 M300.1,260.5l-5.2-2.6l-3,4.3l4.4,3.9l-2.7,3.9l-24.1-22.2l3.7-5.4l29.5,14.3L300.1,260.5z"/>
	<path fill="#FCF8D9" d="M77.2,257.9c0.4-0.7,0.3-1.4-0.2-2.1l-1.2-1.7l-9.6,6.8l1,1.4c0.6,0.8,1.2,1.2,2,1.1
		c0.8-0.1,1.9-0.6,3.3-1.6l2.1-1.5C76,259.4,76.9,258.6,77.2,257.9z"/>
</g>
</svg>
