<?xml version="1.0" encoding="utf-8"?>
<!-- Generator: Adobe Illustrator 17.1.0, SVG Export Plug-In . SVG Version: 6.00 Build 0)  -->
<!DOCTYPE svg PUBLIC "-//W3C//DTD SVG 1.1//EN" "http://www.w3.org/Graphics/SVG/1.1/DTD/svg11.dtd">
<svg version="1.1" id="Layer_1" xmlns="http://www.w3.org/2000/svg" xmlns:xlink="http://www.w3.org/1999/xlink" x="0px" y="0px"
	 viewBox="0 0 343.6 110" enable-background="new 0 0 343.6 110" xml:space="preserve">
<g>
	<path fill="#FCF8D9" d="M30.6,14.2c1.3,2.5,1.3,5.5-0.1,7.4c-5.2-2.6-12.3-1.1-17.7,1.7c-5.3,2.8-8.8,6.7-7.5,9.4
		c2.2,3.1,11.5,2.8,19.2,2.5c9.6-0.4,14.3,0,17.8,6.7c4.1,7.8,1.8,16.7-7,21.2c-8.5,4.4-24.3,5.4-27.7-1.1c-0.8-1.5-1.4-4.4-0.4-8.2
		c1.4,2.2,5.4,4.5,11.3,4.8c5.4,0.3,10.7-1.1,14.5-3.1c8.5-4.4,7.7-10.4,6.9-12.2c-1.7-3-8.7-2.5-16.6-2c-11.8,0.8-17.4,0-20.2-5.5
		C1,31.6,1.5,26.1,5.4,21.5c1.9-2.3,4.5-4.2,7.2-5.6c5-2.6,10.6-3.5,16.5-3.9C30,13.2,30.2,13.4,30.6,14.2z"/>
	<path fill="#FCF8D9" d="M44.4,27.3c-0.5-0.3-1.7-2.2-2.1-3.2c2.2-0.7,4.1-1.2,5.8-1.8c0.6-5.7,2.1-12.2,3.2-13.4
		c1.6-0.6,6-0.8,7.1-0.2c-1.3,3.9-1.9,6.8-2.6,11c1.6-0.6,3.2-1.3,4.8-2.1c0.5,0.2,1,0.8,1.3,1.4c-1.6,1.5-4,2.8-6.7,3.9
		c-1,9.2-0.5,17.9,1.4,22.9c0.7,1.8,1.8,2.5,3.1,2.2c2.3-1.2,4.1-3,5.3-5c0.3,0.2,0.6,0.5,0.8,0.7c-0.4,1.7-3.6,6.3-4.9,6.9
		c-4,1.4-9.9-0.3-11-3.1c-1.5-3.9-2.3-12.9-2.1-21.4L44.4,27.3z"/>
	<path fill="#FCF8D9" d="M89.1,13.6c-1.2,7.9-1.3,15.9,0,20c0.7,2.3,1.7,3.7,3,4c-0.8,0.9-2.4,1.9-3.7,2.3c-2.2,0.7-3.8-0.5-4.7-3.5
		c-0.7-2.3-0.9-5.8-0.6-10.3c-1,8.5-4.6,16.3-8.2,18.1c-3.1,0.8-6.1-1.6-7.4-5.9c-2.8-9.2,2.3-24.4,8.8-26.8c1.8-0.1,5.4,2,6.1,3.5
		c-6.3,3-11,16.4-8.7,24c0.3,0.9,0.7,1.2,1.3,1.2c2.3-1.2,4.2-5.6,6.3-14.3c0.8-3.4,1.9-8.8,2.6-13C85.6,12.3,88.9,12.8,89.1,13.6z"
		/>
	<path fill="#FCF8D9" d="M112.1,50.1c-2.9,4.9-6.6,8.1-10.6,9c-4.1,1-9,0-10.8-2c-0.1-0.5,0.1-1.1,0.6-1.5c2.4,1.3,3.1,1.5,4.9,1
		c9.5-2.2,15.8-15.9,16.2-35.1c-1.3,3.9-4.2,12-7.8,14.3c-2.7,0.5-6.7-0.5-8-3.3c-0.6-2.4-0.7-3.6-0.7-5.5c0.1-6.7,2-18.3,6.3-23.4
		c1.4-0.3,4.4-0.5,6.2,0.6c-0.7,1-3.1,6.6-4.7,16.4c-0.3,2.1-0.8,8.2-0.3,10.4c0.1,0.6,0.5,0.9,0.7,1c1.4-0.6,3.6-3.4,5.6-8.7
		c2.5-6.9,3.7-13.3,6.2-21c2.2-0.5,5.6-0.2,6.5,0.6c-1.3,6.1-2.4,11.9-2.8,17.7C118.7,33.9,116.7,42.3,112.1,50.1z"/>
	<path fill="#FCF8D9" d="M70.9,52.6c5.7-1.3,9.7,0.5,10.7,4.8c0.7,3.3-0.3,7.8-2.6,10.8c-2.2,0.2-4.4-1.2-5.3-3.3
		c2.4-3.1,3.6-6.3,3.1-8.5c-0.4-1.8-1.9-2.5-4.1-2c-3.8,0.9-7.7,5.2-10,10.8c-3.9,9.7-4.9,18.9-2.9,27.6c1.4,6.1,4.4,9.6,7.7,9.6
		c3.4-1.6,8.3-6.9,13.4-14.4c0.5,0.3,0.9,0.8,1.1,1.1c-3.3,7.5-7.9,14.3-11.6,17.3c-10.3,2.1-17.2-2.5-19.7-13.6
		C46.7,75.3,56.2,55.9,70.9,52.6z"/>
	<path fill="#FCF8D9" d="M85.9,89.9c-1.2-6.8,1.7-15.7,6.8-21.2c2-2.1,4.1-3.4,6-3.8c1.5,0.5,3.1,1.8,4.8,3.8
		c0.4-0.1,0.7-0.2,1.1-0.3c2.3-0.4,3.7,1.3,4.4,5.3c1.9,10.6-3.7,20.9-13.5,24.9C90.8,99.1,87,95.6,85.9,89.9z M92.5,92
		c0.4,2,1.6,4.1,2.5,4.2c7.2-3,11.3-12.1,9.5-22c-0.4-2.2-0.9-3.3-1.6-4.1c-3.5,1.7-6,5-7.6,8.1C93.1,82.6,91.9,88.6,92.5,92z"/>
	<path fill="#FCF8D9" d="M127.4,66c-1.2,4.9-6.6,14.9-6.6,18.9c2.3-3.2,5.8-9.2,7.1-11c2.8-3.9,7.8-11.1,12-11.7
		c2.2-0.3,4,1.3,5,2.8c0,0.2-0.7,0.4-1.6,1.9c-1.9,3.3-5,12.3-4.2,17.6c0.3,2.1,0.9,2.4,1.9,2.3c0.9-0.1,2-0.9,2.6-1
		c0.3,0.1,0.7,0.8,0.8,1.2c-1.1,1.3-3.6,3.2-5.1,3.4c-4.9,0.7-6.5-2.1-7-5.9c-0.3-2.1-0.1-4.8,1.9-12c-0.2,0-2.5,1.6-4.6,4.4
		c-3.4,4.4-5.9,8.3-8.5,13.4c-1.5,2.9-2.6,5-3.5,5.8c-1.9-0.8-3-2.7-3.6-4.5c-0.5-3.2,0.4-10.6,2.4-17.6c2.2-7.9,4.5-12.8,5.2-13.2
		C123.6,61.1,126.1,63.4,127.4,66z"/>
	<path fill="#FCF8D9" d="M162.5,61.8c-1.4,4.9-7.2,14.7-7.3,18.6c2.4-3.2,6.2-9,7.5-10.7c2.9-3.8,8.2-10.8,12.4-11.2
		c2.2-0.2,3.9,1.5,4.9,3c0,0.2-0.7,0.3-1.7,1.8c-2,3.2-5.4,12.2-4.9,17.4c0.2,2.1,0.8,2.4,1.9,2.3c0.9-0.1,2-0.9,2.6-0.9
		c0.3,0.2,0.7,0.8,0.7,1.2c-1.2,1.3-3.8,3-5.2,3.2c-4.9,0.5-6.4-2.4-6.8-6.1c-0.2-2.1,0.1-4.8,2.3-11.9c-0.2,0-2.6,1.5-4.8,4.2
		c-3.6,4.3-6.2,8.1-9,13c-1.6,2.8-2.8,5-3.7,5.6c-1.9-0.8-2.9-2.8-3.5-4.7c-0.3-3.2,0.8-10.6,3-17.5c2.5-7.8,5-12.6,5.7-13
		C158.8,56.7,161.3,59.1,162.5,61.8z"/>
	<path fill="#FCF8D9" d="M188.9,77.1c0,0.5,0,1.1,0.1,1.7c0.2,2.2,0.9,5.1,3.3,4.9c4.6-0.3,8.7-5.3,11.2-8.4c0.5,0.4,0.8,0.6,1.2,1
		c-3.5,5.4-8.1,9.4-12.1,10.6c-6-0.2-9.7-4-10.1-9.1c-0.8-10.5,7.9-23.6,16.4-24.3c1.9,0.1,3.9,1.2,5.8,3.2
		C204.7,67.3,199.5,71.9,188.9,77.1z M189.2,74.6c6.5-3.9,11.2-9.5,11.1-15.4C195.7,60.2,190.7,66.5,189.2,74.6z"/>
	<path fill="#FCF8D9" d="M225.9,51.9c4.4-0.2,7.1,2,7.3,6.1c0.2,3.9-2.1,7.9-4.5,8c-1,0.1-2.2-0.6-3-1.6c2.8-2.8,4.1-5.2,4-7.3
		c-0.1-1.2-0.6-1.8-1.6-1.8c-1.7,0.1-4.5,2-6.7,4.8c-3.5,4.3-5.2,9.5-4.9,15c0.2,3.5,1,5.5,2.6,6.1c2.5-0.4,7-2.9,10.8-6.1
		c0.3,0.2,0.7,0.9,0.7,1.3c-2.7,3.7-7.7,7.6-10.6,8.3c-5.7-0.2-10.5-5.9-10.9-12.7C208.6,62.2,216.9,52.4,225.9,51.9z"/>
	<path fill="#FCF8D9" d="M238.9,57.4c-0.4-0.5-0.9-2.6-0.9-3.8c2.3,0.1,4.3,0.2,6.1,0.2c2.4-5.1,6-10.8,7.4-11.6
		c1.7,0,5.9,1.2,6.7,2.1c-2.5,3.3-4,5.8-6.1,9.5c1.7,0,3.5-0.2,5.3-0.4c0.4,0.4,0.7,1.1,0.8,1.8c-2,0.8-4.7,1.3-7.6,1.5
		c-4,8.3-6.4,16.8-6.2,22c0.1,1.9,0.8,2.9,2.2,3.1c2.6-0.4,4.9-1.5,6.7-2.9c0.2,0.3,0.4,0.7,0.5,1c-0.9,1.5-5.5,4.7-6.9,4.9
		c-4.2,0-9.2-3.5-9.3-6.6c-0.1-4.2,2-12.9,5.1-20.9L238.9,57.4z"/>
	<path fill="#FCF8D9" d="M264,74.1c0,0.5-0.1,1.1-0.1,1.7c0,2.2,0.5,5.1,3,5.1c4.6,0,9-4.7,11.7-7.6c0.5,0.4,0.8,0.7,1.1,1.1
		c-3.8,5.1-8.8,8.8-12.8,9.7c-5.9-0.6-9.4-4.6-9.4-9.8c-0.1-10.5,9.5-23,18-23.1c1.9,0.2,3.8,1.5,5.6,3.6
		C280.5,65.4,274.9,69.6,264,74.1z M264.5,71.6c6.8-3.4,11.8-8.8,12.1-14.6C271.9,57.7,266.5,63.6,264.5,71.6z"/>
	<path fill="#FCF8D9" d="M304.3,54.8c-0.6-6.8-2.1-11.6-8.1-21.7c0.6-1.6,3.9-4.2,6.1-4.5c4.8,5.4,8.5,16.8,8.3,25.7
		c-0.3,13.4-10.1,29.7-18.8,31c-5.9-0.8-9.1-4-9-9.5c0.2-8.9,9.1-22.4,15.7-23.9C300.2,51.9,302.6,53.1,304.3,54.8z M304.4,57.8
		c0-1.5,0-1.5,0-1.9c-6.2,2.5-15.8,16.4-15.9,23c0,2.2,0.9,3.4,2.8,3.7C297.4,80.7,304.2,67.8,304.4,57.8z"/>
	<path fill="#FCF8D9" d="M309,84.1c0.1-2.1,1.4-7,3.3-6.9c2.4,0.1,5.1,2.2,6.2,4.3c-2.1,2.1-3.1,6-5.7,5.9
		C310.8,87.3,309,85,309,84.1z M333.6,32.3c2.7,0.7,6.6,4.5,6.9,6.7c-9.1,6.9-18.4,21.2-21.8,36.6c-2.1-0.7-3.9-1.4-3.7-5.2
		C315.2,63.3,328.5,35.8,333.6,32.3z"/>
</g>
</svg>
