<?xml version="1.0" encoding="utf-8"?>
<!-- Generator: Adobe Illustrator 18.0.0, SVG Export Plug-In . SVG Version: 6.00 Build 0)  -->
<!DOCTYPE svg PUBLIC "-//W3C//DTD SVG 1.1//EN" "http://www.w3.org/Graphics/SVG/1.1/DTD/svg11.dtd">
<svg version="1.1" id="Layer_1" xmlns="http://www.w3.org/2000/svg" xmlns:xlink="http://www.w3.org/1999/xlink" x="0px" y="0px"
	 viewBox="0 0 72 72" enable-background="new 0 0 72 72" xml:space="preserve">
<path display="none" fill="#FCF8D9" d="M37.7,43.1c5.4,0,9.9-4.8,9.9-10.2c0-5.4-4.4-9.8-9.8-9.8s-10.2,4.4-10.2,9.9
	S32.3,43.1,37.7,43.1"/>
<path display="none" fill="#FCF8D9" d="M49.9,22.3c2.5,0.3,5.8,0,5.8,0s1.2-0.3,1.3-2.1c0.1-1.8,0-5.7,0-5.7s-0.4-1.4-2.5-1.5
	c-1.9-0.1-4.5,0.1-5.4,0.1c0,0-1.3,0.4-1.3,1.7s-0.3,5.2-0.3,5.2S47.5,22,49.9,22.3"/>
<path display="none" fill="#FCF8D9" d="M63.2,56.3c0.1,3.7-2.2,3.3-4.1,3.3c-1.9,0-41.2-0.1-43.5-0.1s-4.3-1-4.4-3.6
	c-0.1-2.6,0-39.7,0-42.2S13,12,15.4,12h43.6c2.7,0,4.1-0.5,4.1,2S63.1,52.5,63.2,56.3 M0,72h72V0H0V72z"/>
<path display="none" fill="#FCF8D9" d="M57.1,34h-4.7c0.6,0,1,1.2,1,3.1C53.3,46,46.1,51,37.2,51C28.3,51,21,45.3,21,36.3
	c0-1.9,0.4-2.3,1-2.3h-4.9l-0.2,18.5c0,0,0.5-0.3,2.3-0.2c1.8,0.1,36.3,0.1,36.3,0.1s1.7,1.8,1.6-0.6C57,49.9,57,38,57.1,34"/>
<path fill="#FCF8D9" d="M50,34H38v15.7c0,0,3.6,6.6,12,0.2v8.4c0,0-3.1,3.5-12,3.5c-8.9,0-14-5.4-14-8V34h-8V19.8
	c0,0,15.7,6.5,16.6-11.8H41l0.1,14H50V34z M0,72h72V0H0V72z"/>
</svg>
