<?xml version="1.0" encoding="utf-8"?>
<!-- Generator: Adobe Illustrator 21.0.0, SVG Export Plug-In . SVG Version: 6.00 Build 0)  -->
<svg version="1.1" xmlns="http://www.w3.org/2000/svg" xmlns:xlink="http://www.w3.org/1999/xlink" x="0px" y="0px"
	 viewBox="0 0 216 96" style="enable-background:new 0 0 216 96;" xml:space="preserve">
<style type="text/css">
	.st0{display:none;}
	.st1{display:inline;fill:#FFFFFF;}
	.st2{display:inline;fill:#F4F4F4;}
	.st3{fill:#F4F4F4;}
	.st4{display:none;fill:#332929;}
</style>
<g id="Layer_1">
	<g class="st0">
		<path class="st1" d="M92.9,13.9l-3.2-8c-0.6-1.4-2.6-1.5-3.2,0L83,14.1c-0.2,0.4-0.2,0.9,0,1.3l3.7,9.3c0.3,0.7,0.9,1.1,1.6,1.1
			h15.8h9.2l0,0c1.2,0,2.1-1.2,1.6-2.4L98.5-18.2c-0.5-1.1,0.4-2.4,1.6-2.4l2.9,0c0.7,0,1.3,0.4,1.6,1.1l3.2,8
			c0.6,1.4,2.6,1.5,3.2,0l3.4-8.2c0.2-0.4,0.2-0.9,0-1.3l-3.7-9.3c-0.3-0.7-0.9-1.1-1.6-1.1H93.3h-9.2h0c-1.2,0-2.1,1.2-1.6,2.4
			L99,12.7c0.5,1.1-0.4,2.4-1.6,2.4l-2.9,0C93.8,15,93.1,14.6,92.9,13.9z"/>
		<path class="st1" d="M123.3,25.8h8c1.2,0,2.1-1.2,1.6-2.4L122.7-2.1c-0.2-0.4-0.2-0.9,0-1.3l10.7-25.5c0.5-1.1-0.4-2.4-1.6-2.4
			h-7.9c-0.7,0-1.3,0.4-1.6,1.1l-11,26.8c-0.2,0.4-0.2,0.9,0,1.3l10.5,26.8C122,25.4,122.6,25.8,123.3,25.8z"/>
	</g>
	<g class="st0">
		<path class="st2" d="M120.4-22.4l-9.7,23.7c-0.1,0.4-0.2,0.8,0,1.1l9.2,23.7c0.2,0.6,0.8,1,1.4,1h7c1.1,0,1.8-1.1,1.4-2.1l-9-22.5
			c-0.2-0.4-0.1-0.8,0-1.2l9.5-22.5c0.4-1-0.3-2.1-1.4-2.1h-7C121.2-23.3,120.6-22.9,120.4-22.4z"/>
		<path class="st2" d="M94.8-23.3h-8.1h0c-1.1,0-1.8,1.1-1.4,2.1l14.5,36.7c0.4,1-0.3,2.1-1.4,2.1l-2.5,0c-0.6,0-1.2-0.4-1.4-1
			l-2.8-7.1c-0.5-1.3-2.3-1.3-2.8,0l-3,7.2c-0.2,0.4-0.2,0.8,0,1.2l3.3,8.2c0.2,0.6,0.8,1,1.4,1h14h8.1l0,0c1.1,0,1.8-1.1,1.4-2.1
			L99.4-11.7c-0.4-1,0.3-2.1,1.4-2.1l2.5,0c0.6,0,1.2,0.4,1.4,1l2.8,7.1c0.5,1.3,2.3,1.3,2.8,0l3-7.2c0.2-0.4,0.2-0.8,0-1.2
			l-3.3-8.2c-0.2-0.6-0.8-1-1.4-1H94.8z"/>
	</g>
	<g>
		<path class="st3" d="M26.2,66.5l-1.5,1.4C24.5,68,24.1,68,24,67.8c-0.7-0.9-1.4-1.3-2.2-1.3c-0.4,0-0.7,0.1-1,0.3
			c-0.3,0.2-0.4,0.5-0.4,0.7c0,0.3,0.1,0.5,0.3,0.8c0.3,0.3,1,1,2.3,2.1c1.2,1,1.9,1.6,2.2,1.9c0.6,0.6,1.1,1.3,1.4,1.8
			c0.3,0.6,0.4,1.2,0.4,1.9c0,1.4-0.5,2.5-1.4,3.4c-0.9,0.9-2.2,1.3-3.7,1.3c-1.2,0-2.2-0.3-3.1-0.9c-0.8-0.5-1.4-1.3-2-2.3
			c-0.1-0.2,0-0.5,0.2-0.7l1.8-1.1c0.2-0.1,0.5-0.1,0.7,0.2c0.7,1.2,1.6,1.7,2.5,1.7c0.5,0,1-0.2,1.4-0.5c0.4-0.3,0.6-0.7,0.6-1.1
			c0-0.4-0.1-0.7-0.4-1.1c-0.3-0.4-0.9-0.9-1.8-1.7c-1.8-1.5-3-2.6-3.5-3.4c-0.5-0.8-0.8-1.6-0.8-2.4c0-1.1,0.4-2.1,1.3-2.9
			c0.9-0.8,1.9-1.2,3.2-1.2c0.8,0,1.6,0.2,2.4,0.6c0.6,0.3,1.3,0.9,2.1,1.7C26.5,66,26.4,66.3,26.2,66.5z"/>
		<path class="st3" d="M35.6,63.9h2.5c0.2,0,0.4,0.1,0.5,0.3l6,15.5c0.1,0.3-0.1,0.7-0.5,0.7h-2.2c-0.2,0-0.4-0.1-0.5-0.3l-1-2.7
			c-0.1-0.2-0.3-0.3-0.5-0.3h-6c-0.2,0-0.4,0.1-0.5,0.3l-1.1,2.8c-0.1,0.2-0.3,0.3-0.5,0.3h-2.2c-0.4,0-0.6-0.4-0.5-0.7l6-15.5
			C35.2,64,35.4,63.9,35.6,63.9z M36.4,69.5l-1.5,3.8c-0.1,0.3,0.1,0.7,0.5,0.7h2.9c0.4,0,0.6-0.4,0.5-0.7l-1.5-3.8
			C37.2,69,36.6,69,36.4,69.5z"/>
		<path class="st3" d="M47.8,64.4c0-0.3,0.2-0.5,0.5-0.5h2.8c1.8,0,3.1,0.2,3.9,0.5c0.8,0.3,1.4,0.9,1.9,1.6s0.7,1.6,0.7,2.7
			c0,1.1-0.3,2-0.8,2.7c-0.4,0.6-1,1.1-1.8,1.4c-0.3,0.1-0.4,0.4-0.3,0.7l3.2,6.1c0.2,0.3-0.1,0.7-0.4,0.7h-2.3
			c-0.2,0-0.4-0.1-0.4-0.3l-3.6-6.7h-0.3v6.5c0,0.3-0.2,0.5-0.5,0.5h-2.1c-0.3,0-0.5-0.2-0.5-0.5V64.4z M50.9,70.3h1
			c1,0,1.7-0.1,2.1-0.4c0.4-0.3,0.6-0.7,0.6-1.3c0-0.4-0.1-0.7-0.3-0.9c-0.2-0.3-0.4-0.5-0.7-0.6C53.2,67,52.6,67,51.8,67h-0.9V70.3
			z"/>
		<path class="st3" d="M66.6,63.9h2.5c0.2,0,0.4,0.1,0.5,0.3l6,15.5c0.1,0.3-0.1,0.7-0.5,0.7h-2.2c-0.2,0-0.4-0.1-0.5-0.3l-1-2.7
			c-0.1-0.2-0.3-0.3-0.5-0.3h-6c-0.2,0-0.4,0.1-0.5,0.3l-1.1,2.8c-0.1,0.2-0.3,0.3-0.5,0.3h-2.2c-0.4,0-0.6-0.4-0.5-0.7l6-15.5
			C66.2,64,66.4,63.9,66.6,63.9z M67.4,69.5l-1.5,3.8c-0.1,0.3,0.1,0.7,0.5,0.7h2.9c0.4,0,0.6-0.4,0.5-0.7l-1.5-3.8
			C68.2,69,67.6,69,67.4,69.5z"/>
		<path class="st3" d="M79.1,63.9h2.2c0.3,0,0.5,0.2,0.5,0.5v5.2c0,0.3,0.2,0.5,0.5,0.5h4.5c0.3,0,0.5-0.2,0.5-0.5v-5.2
			c0-0.3,0.2-0.5,0.5-0.5h2.2c0.3,0,0.5,0.2,0.5,0.5v15.5c0,0.3-0.2,0.5-0.5,0.5h-2.2c-0.3,0-0.5-0.2-0.5-0.5v-6.2
			c0-0.3-0.2-0.5-0.5-0.5h-4.5c-0.3,0-0.5,0.2-0.5,0.5v6.2c0,0.3-0.2,0.5-0.5,0.5h-2.2c-0.3,0-0.5-0.2-0.5-0.5V64.4
			C78.6,64.1,78.8,63.9,79.1,63.9z"/>
		<path class="st3" d="M100.4,63.9h7.6c0.4,0,0.7,0.3,0.7,0.7v1.6c0,0.4-0.3,0.7-0.7,0.7h-1.5c-0.4,0-0.7,0.3-0.7,0.7v11.9
			c0,0.4-0.3,0.7-0.7,0.7h-1.7c-0.4,0-0.7-0.3-0.7-0.7V67.7c0-0.4-0.3-0.7-0.7-0.7h-1.4c-0.4,0-0.7-0.3-0.7-0.7v-1.6
			C99.7,64.2,100,63.9,100.4,63.9z"/>
		<path class="st3" d="M112.1,63.9h7.5c0.4,0,0.7,0.3,0.7,0.7v1.6c0,0.4-0.3,0.7-0.7,0.7h-4.4c-0.4,0-0.7,0.3-0.7,0.7v1.5
			c0,0.4,0.3,0.7,0.7,0.7h4.4c0.4,0,0.7,0.3,0.7,0.7v1.5c0,0.4-0.3,0.7-0.7,0.7h-4.4c-0.4,0-0.7,0.3-0.7,0.7v2.9
			c0,0.4,0.3,0.7,0.7,0.7h4.4c0.4,0,0.7,0.3,0.7,0.7v1.6c0,0.4-0.3,0.7-0.7,0.7h-7.5c-0.4,0-0.7-0.3-0.7-0.7v-15
			C111.3,64.2,111.6,63.9,112.1,63.9z"/>
		<path class="st3" d="M123.6,64.6c0-0.4,0.3-0.7,0.7-0.7h3c2.4,0,4.2,0.3,5.3,0.9c1.2,0.6,2.1,1.6,2.9,2.9c0.8,1.3,1.1,2.9,1.1,4.7
			c0,1.3-0.2,2.4-0.6,3.5c-0.4,1.1-1,1.9-1.7,2.7c-0.7,0.7-1.5,1.2-2.4,1.5c-0.9,0.3-2.4,0.4-4.5,0.4h-3c-0.4,0-0.7-0.3-0.7-0.7
			V64.6z M126.7,66.9v10.4h1.5c1.4,0,2.5-0.2,3.1-0.5c0.6-0.3,1.2-0.9,1.6-1.7c0.4-0.8,0.6-1.7,0.6-2.9c0-1.8-0.5-3.1-1.5-4.1
			c-0.9-0.9-2.3-1.3-4.3-1.3H126.7z"/>
		<path class="st3" d="M140.8,63.9h7.5c0.4,0,0.7,0.3,0.7,0.7v1.6c0,0.4-0.3,0.7-0.7,0.7h-4.4c-0.4,0-0.7,0.3-0.7,0.7v1.5
			c0,0.4,0.3,0.7,0.7,0.7h4.4c0.4,0,0.7,0.3,0.7,0.7v1.5c0,0.4-0.3,0.7-0.7,0.7h-4.4c-0.4,0-0.7,0.3-0.7,0.7v2.9
			c0,0.4,0.3,0.7,0.7,0.7h4.4c0.4,0,0.7,0.3,0.7,0.7v1.6c0,0.4-0.3,0.7-0.7,0.7h-7.5c-0.4,0-0.7-0.3-0.7-0.7v-15
			C140,64.2,140.4,63.9,140.8,63.9z"/>
		<path class="st3" d="M160.4,66.6l-1.2,1c-0.3,0.3-0.8,0.2-1-0.1c-0.7-0.8-1.4-1.1-2-1.1c-0.4,0-0.7,0.1-1,0.3
			c-0.3,0.2-0.4,0.5-0.4,0.7c0,0.3,0.1,0.5,0.3,0.8c0.3,0.3,1,1,2.3,2.1c1.2,1,1.9,1.6,2.2,1.9c0.6,0.6,1.1,1.3,1.4,1.8
			c0.3,0.6,0.4,1.2,0.4,1.9c0,1.4-0.5,2.5-1.4,3.4c-0.9,0.9-2.2,1.3-3.7,1.3c-1.2,0-2.2-0.3-3.1-0.9c-0.7-0.5-1.3-1.1-1.9-2
			c-0.2-0.4-0.1-0.8,0.2-1l1.4-0.8c0.3-0.2,0.8-0.1,1,0.2c0.7,1.1,1.5,1.6,2.4,1.6c0.5,0,1-0.2,1.4-0.5c0.4-0.3,0.6-0.7,0.6-1.1
			c0-0.4-0.1-0.7-0.4-1.1c-0.3-0.4-0.9-0.9-1.8-1.7c-1.8-1.5-3-2.6-3.5-3.4c-0.5-0.8-0.8-1.6-0.8-2.4c0-1.1,0.4-2.1,1.3-2.9
			s1.9-1.2,3.2-1.2c0.8,0,1.6,0.2,2.4,0.6c0.6,0.3,1.2,0.8,1.9,1.5C160.7,65.9,160.7,66.4,160.4,66.6z"/>
		<path class="st3" d="M179.3,67.2l-1.2,1.2c-0.3,0.2-0.7,0.2-0.9,0c-1.4-1.3-2.9-1.9-4.6-1.9c-1.6,0-2.9,0.5-4,1.6
			c-1.1,1.1-1.6,2.4-1.6,4c0,1.1,0.2,2.1,0.7,2.9s1.2,1.5,2,2c0.9,0.5,1.8,0.7,2.9,0.7c0.9,0,1.7-0.2,2.5-0.5c0.6-0.3,1.3-0.7,2-1.4
			c0.3-0.2,0.7-0.2,0.9,0l1.2,1.3c0.3,0.3,0.2,0.7,0,1c-1,0.9-2,1.6-3,2c-1.1,0.5-2.3,0.7-3.7,0.7c-2.6,0-4.7-0.8-6.3-2.4
			c-1.6-1.6-2.5-3.7-2.5-6.3c0-1.6,0.4-3.1,1.1-4.4c0.8-1.4,2-2.4,3.5-3.2c1-0.5,2.2-0.9,3.3-1c1.7-0.2,3.3,0.1,4.8,0.8
			c1.1,0.5,2,1.1,2.8,2C179.6,66.6,179.5,67,179.3,67.2z"/>
		<path class="st3" d="M190,63.5c2.6-0.2,4.9,0.7,6.7,2.5c1.7,1.7,2.5,3.7,2.5,6.2c0,2.4-0.8,4.4-2.5,6.1c-1.7,1.7-3.7,2.5-6,2.5
			c-2.5,0-4.5-0.9-6.2-2.6c-1.6-1.7-2.5-3.7-2.5-6.1c0-1.6,0.4-3,1.1-4.4c0.9-1.5,2.2-2.7,3.9-3.5C187.9,63.8,188.9,63.6,190,63.5z
			 M191.5,66.6c-1.9-0.2-3.5,0.3-4.7,1.5c-1,1.1-1.6,2.4-1.6,4c0,1.9,0.7,3.3,2.1,4.4c1,0.8,2.4,1.2,3.7,1.2
			c1.4-0.1,2.6-0.6,3.6-1.6c1-1.1,1.6-2.4,1.6-4c0-1.9-0.8-3.5-2.3-4.7C193,67,192.3,66.7,191.5,66.6z"/>
		<path class="st3" d="M34.3,86.1l-0.7,0.7c-0.5-0.5-1.1-0.9-1.7-1.1c-0.6-0.3-1.2-0.4-1.8-0.4c-0.7,0-1.4,0.2-2.1,0.5
			c-0.7,0.4-1.2,0.8-1.5,1.4c-0.4,0.6-0.5,1.2-0.5,1.9c0,0.7,0.2,1.3,0.6,2c0.4,0.6,0.9,1.1,1.5,1.5c0.7,0.4,1.4,0.5,2.1,0.5
			c0.9,0,1.7-0.3,2.4-0.8c0.7-0.5,1-1.2,1.2-2.1h-2.9v-0.9h4c0,1.4-0.4,2.5-1.3,3.4c-0.8,0.8-1.9,1.2-3.3,1.2c-1.7,0-3-0.6-4-1.7
			c-0.8-0.9-1.1-1.9-1.1-3.1c0-0.9,0.2-1.7,0.7-2.4c0.4-0.7,1-1.3,1.8-1.8c0.8-0.4,1.6-0.6,2.6-0.6c0.8,0,1.5,0.1,2.2,0.4
			C33,85.1,33.6,85.5,34.3,86.1z"/>
		<path class="st3" d="M36.6,84.6h1.8c1,0,1.7,0,2.1,0.1c0.5,0.1,1,0.4,1.3,0.8c0.3,0.4,0.5,0.9,0.5,1.5c0,0.5-0.1,0.9-0.4,1.3
			c-0.2,0.4-0.6,0.7-1,0.9c-0.4,0.2-1,0.3-1.8,0.3l3.3,4.3h-1.1l-3.3-4.3h-0.5v4.3h-0.9V84.6z M37.5,85.5v3.1l1.6,0
			c0.6,0,1.1-0.1,1.4-0.2c0.3-0.1,0.5-0.3,0.7-0.6c0.2-0.3,0.2-0.5,0.2-0.9c0-0.3-0.1-0.6-0.2-0.8c-0.2-0.3-0.4-0.4-0.7-0.5
			s-0.7-0.2-1.3-0.2H37.5z"/>
		<path class="st3" d="M48.1,84.6l4.3,9.2h-1l-1.4-3H46l-1.4,3h-1l4.3-9.2H48.1z M47.9,86.6l-1.6,3.3h3.1L47.9,86.6z"/>
		<path class="st3" d="M53.7,84.6h1.8c1,0,1.8,0,2.1,0.1c0.5,0.1,1,0.4,1.3,0.8c0.3,0.4,0.5,0.9,0.5,1.5c0,0.6-0.2,1.1-0.5,1.5
			s-0.8,0.7-1.3,0.8c-0.4,0.1-1.2,0.1-2.3,0.1h-0.7v4.3h-0.9V84.6z M54.7,85.5v3.1l1.6,0c0.6,0,1.1-0.1,1.4-0.2
			c0.3-0.1,0.5-0.3,0.7-0.6c0.2-0.3,0.2-0.5,0.2-0.9c0-0.3-0.1-0.6-0.2-0.8c-0.2-0.3-0.4-0.4-0.7-0.5c-0.3-0.1-0.7-0.2-1.3-0.2H54.7
			z"/>
		<path class="st3" d="M61.3,84.6h0.9v3.8h4.7v-3.8h0.9v9.2h-0.9v-4.4h-4.7v4.4h-0.9V84.6z"/>
		<path class="st3" d="M69.9,84.6h0.9v9.2h-0.9V84.6z"/>
		<path class="st3" d="M81.4,86.3l-0.7,0.6c-0.4-0.5-0.9-0.9-1.4-1.2c-0.6-0.3-1.2-0.4-1.8-0.4c-0.7,0-1.4,0.2-2,0.5
			c-0.6,0.4-1.1,0.8-1.4,1.4c-0.3,0.6-0.5,1.3-0.5,2c0,1.1,0.4,2,1.1,2.8c0.8,0.7,1.7,1.1,2.9,1.1c1.3,0,2.4-0.5,3.2-1.5l0.7,0.5
			c-0.5,0.6-1,1-1.7,1.3c-0.7,0.3-1.4,0.5-2.3,0.5c-1.6,0-2.9-0.5-3.8-1.6c-0.8-0.9-1.2-2-1.2-3.3c0-1.3,0.5-2.5,1.4-3.4
			c0.9-0.9,2.1-1.4,3.5-1.4c0.9,0,1.6,0.2,2.3,0.5C80.4,85.2,81,85.7,81.4,86.3z"/>
		<path class="st3" d="M90.6,84.6l4.3,9.2h-1l-1.4-3h-3.9l-1.4,3h-1l4.3-9.2H90.6z M90.4,86.6l-1.6,3.3H92L90.4,86.6z"/>
		<path class="st3" d="M96.3,93.8v-9.2h0.2l6.1,7v-7h0.9v9.2h-0.2l-6.1-6.9v6.9H96.3z"/>
		<path class="st3" d="M105.7,93.8v-9.2h1.9c1.4,0,2.4,0.1,3,0.3c0.9,0.3,1.6,0.9,2.1,1.6c0.5,0.8,0.8,1.7,0.8,2.7
			c0,0.9-0.2,1.7-0.6,2.4c-0.4,0.7-0.9,1.2-1.5,1.5c-0.6,0.3-1.5,0.5-2.7,0.5H105.7z M106.6,92.9h1.1c1.3,0,2.1-0.1,2.6-0.2
			c0.7-0.2,1.2-0.6,1.6-1.2c0.4-0.6,0.6-1.3,0.6-2.1c0-0.9-0.2-1.6-0.6-2.3c-0.4-0.6-1-1.1-1.8-1.3c-0.6-0.2-1.5-0.3-2.8-0.3h-0.6
			V92.9z"/>
		<path class="st3" d="M118.2,84.6h0.9l1.9,6.6l2.6-6.6h0.2l2.6,6.6l1.9-6.6h0.9l-2.6,9.2h-0.2l-2.7-6.9l-2.8,6.9h-0.2L118.2,84.6z"
			/>
		<path class="st3" d="M131,84.6h5.3v0.9h-4.3v2.9h4.3v0.9h-4.3v3.6h4.3v0.9H131V84.6z"/>
		<path class="st3" d="M137.8,84.6h1.8c0.7,0,1.3,0.1,1.7,0.3c0.4,0.2,0.7,0.4,0.9,0.8c0.2,0.4,0.3,0.8,0.3,1.2
			c0,0.4-0.1,0.8-0.3,1.1c-0.2,0.3-0.5,0.6-0.9,0.8c0.5,0.2,0.8,0.4,1.1,0.6c0.3,0.2,0.5,0.5,0.6,0.8c0.1,0.3,0.2,0.6,0.2,1
			c0,0.7-0.3,1.4-0.8,1.9c-0.5,0.5-1.3,0.8-2.2,0.8h-2.5V84.6z M138.7,85.5v2.9h0.5c0.6,0,1.1-0.1,1.4-0.2c0.3-0.1,0.5-0.3,0.7-0.6
			c0.2-0.3,0.3-0.5,0.3-0.9c0-0.4-0.1-0.7-0.4-1c-0.3-0.2-0.8-0.4-1.4-0.4H138.7z M138.7,89.4v3.5h1.1c0.7,0,1.2-0.1,1.5-0.2
			c0.3-0.1,0.6-0.3,0.8-0.6c0.2-0.3,0.3-0.6,0.3-0.9c0-0.4-0.1-0.8-0.4-1.1c-0.3-0.3-0.6-0.5-1.1-0.6c-0.3-0.1-0.9-0.1-1.6-0.1
			H138.7z"/>
		<path class="st3" d="M148.7,93.8v-9.2h1.9c1.4,0,2.4,0.1,3,0.3c0.9,0.3,1.6,0.9,2.1,1.6c0.5,0.8,0.8,1.7,0.8,2.7
			c0,0.9-0.2,1.7-0.6,2.4c-0.4,0.7-0.9,1.2-1.5,1.5c-0.6,0.3-1.5,0.5-2.7,0.5H148.7z M149.6,92.9h1.1c1.3,0,2.1-0.1,2.6-0.2
			c0.7-0.2,1.2-0.6,1.6-1.2c0.4-0.6,0.6-1.3,0.6-2.1c0-0.9-0.2-1.6-0.6-2.3c-0.4-0.6-1-1.1-1.8-1.3c-0.6-0.2-1.5-0.3-2.8-0.3h-0.6
			V92.9z"/>
		<path class="st3" d="M158.2,84.6h5.3v0.9h-4.3v2.9h4.3v0.9h-4.3v3.6h4.3v0.9h-5.2V84.6z"/>
		<path class="st3" d="M164.1,92.1l0.8-0.5c0.5,1,1.2,1.5,1.9,1.5c0.3,0,0.6-0.1,0.9-0.2c0.3-0.1,0.5-0.3,0.6-0.6
			c0.1-0.2,0.2-0.5,0.2-0.8c0-0.3-0.1-0.6-0.3-0.9c-0.3-0.4-0.8-0.9-1.6-1.5c-0.8-0.6-1.2-1-1.4-1.3c-0.3-0.4-0.5-0.9-0.5-1.4
			c0-0.4,0.1-0.8,0.3-1.1c0.2-0.3,0.5-0.6,0.8-0.8c0.3-0.2,0.7-0.3,1.1-0.3c0.4,0,0.8,0.1,1.2,0.3c0.4,0.2,0.8,0.6,1.2,1.2l-0.7,0.6
			c-0.3-0.5-0.6-0.8-0.9-0.9c-0.2-0.1-0.5-0.2-0.8-0.2c-0.4,0-0.7,0.1-0.9,0.3c-0.2,0.2-0.4,0.5-0.4,0.8c0,0.2,0,0.4,0.1,0.6
			c0.1,0.2,0.2,0.4,0.5,0.6c0.1,0.1,0.5,0.4,1.2,0.9c0.8,0.6,1.3,1.1,1.6,1.6c0.3,0.5,0.4,0.9,0.4,1.4c0,0.7-0.3,1.2-0.8,1.7
			s-1.1,0.7-1.8,0.7c-0.6,0-1.1-0.1-1.5-0.4C164.9,93.3,164.5,92.8,164.1,92.1z"/>
		<path class="st3" d="M171.2,84.6h0.9v9.2h-0.9V84.6z"/>
		<path class="st3" d="M183.1,86.1l-0.7,0.7c-0.5-0.5-1.1-0.9-1.7-1.1c-0.6-0.3-1.2-0.4-1.8-0.4c-0.7,0-1.4,0.2-2.1,0.5
			c-0.6,0.4-1.2,0.8-1.5,1.4c-0.4,0.6-0.5,1.2-0.5,1.9c0,0.7,0.2,1.3,0.6,2c0.4,0.6,0.9,1.1,1.5,1.5c0.7,0.4,1.4,0.5,2.1,0.5
			c0.9,0,1.7-0.3,2.4-0.8c0.7-0.5,1-1.2,1.2-2.1h-2.9v-0.9h4c0,1.4-0.4,2.5-1.3,3.4c-0.8,0.8-1.9,1.2-3.3,1.2c-1.7,0-3-0.6-4-1.7
			c-0.8-0.9-1.1-1.9-1.1-3.1c0-0.9,0.2-1.7,0.7-2.4c0.4-0.7,1-1.3,1.8-1.8c0.8-0.4,1.6-0.6,2.6-0.6c0.8,0,1.5,0.1,2.2,0.4
			C181.8,85.1,182.4,85.5,183.1,86.1z"/>
		<path class="st3" d="M185.4,93.8v-9.2h0.2l6.1,7v-7h0.9v9.2h-0.2l-6.1-6.9v6.9H185.4z"/>
	</g>
	<path class="st3" d="M127.5,2.5H88.8c-2.1,0-3.8,1.7-3.8,3.8v42c0,2.1,1.7,3.8,3.8,3.8h38.7c2.1,0,3.8-1.7,3.8-3.8v-42
		C131.3,4.2,129.6,2.5,127.5,2.5z M111.4,45.6h-5.8H95.4c-0.5,0-0.9-0.3-1-0.7L92,38.9c-0.1-0.3-0.1-0.6,0-0.8l2.2-5.2
		c0.4-0.9,1.7-0.9,2.1,0l2,5.1c0.2,0.4,0.6,0.7,1,0.7l1.8,0c0.8,0,1.3-0.8,1-1.5L91.7,10.6c-0.3-0.7,0.2-1.5,1-1.5h5.8h10.1
		c0.5,0,0.9,0.3,1,0.7l2.4,5.9c0.1,0.3,0.1,0.6,0,0.8l-2.2,5.2c-0.4,0.9-1.7,0.9-2.1,0l-2-5.1c-0.2-0.4-0.6-0.7-1-0.7l-1.8,0
		c-0.8,0-1.3,0.8-1,1.5L112.4,44C112.7,44.8,112.2,45.6,111.4,45.6z M124.2,10.6l-6.8,16.3c-0.1,0.3-0.1,0.6,0,0.8l6.5,16.3
		c0.3,0.7-0.2,1.5-1,1.5h-5.1c-0.5,0-0.9-0.3-1-0.7l-6.7-17.1c-0.1-0.3-0.1-0.6,0-0.8l7-17.1c0.2-0.4,0.6-0.7,1-0.7h5.1
		C124,9.1,124.5,9.9,124.2,10.6z"/>
	<path class="st4" d="M159-39.3v73.5c0,1,0.8,1.7,1.7,1.7h68.5c1,0,1.7-0.8,1.7-1.7v-73.5c0-1-0.8-1.7-1.7-1.7h-68.5
		C159.8-41,159-40.2,159-39.3z M200.3,25.8h-9.2h-15.8c-0.7,0-1.3-0.4-1.6-1.1l-3.7-9.3c-0.2-0.4-0.2-0.9,0-1.3l3.4-8.2
		c0.6-1.4,2.6-1.4,3.2,0l3.2,8c0.3,0.7,0.9,1.1,1.6,1.1l2.9,0c1.2,0,2.1-1.2,1.6-2.4l-16.4-41.6c-0.5-1.1,0.4-2.4,1.6-2.4l0,0h9.2
		h15.8c0.7,0,1.3,0.4,1.6,1.1l3.7,9.3c0.2,0.4,0.2,0.9,0,1.3l-3.4,8.2c-0.6,1.4-2.6,1.4-3.2,0l-3.2-8c-0.3-0.7-0.9-1.1-1.6-1.1
		l-2.9,0c-1.2,0-2.1,1.2-1.6,2.4l16.4,41.6C202.4,24.6,201.5,25.8,200.3,25.8L200.3,25.8z M218.3,25.8h-8c-0.7,0-1.4-0.4-1.6-1.1
		L198.2-2.1c-0.2-0.4-0.2-0.9,0-1.3l11-26.8c0.3-0.7,0.9-1.1,1.6-1.1h7.9c1.2,0,2.1,1.3,1.6,2.4L209.7-3.4c-0.2,0.4-0.2,0.9,0,1.3
		l10.2,25.5C220.4,24.6,219.5,25.8,218.3,25.8z"/>
	<g class="st0">
		<path class="st2" d="M27.2,65.6l-2.3,2.1c-0.8-1.1-1.6-1.7-2.5-1.7c-0.4,0-0.7,0.1-1,0.3C21.1,66.5,21,66.7,21,67s0.1,0.5,0.3,0.8
			c0.3,0.3,1,1,2.3,2.1c1.2,1,1.9,1.6,2.2,1.9c0.6,0.6,1.1,1.3,1.4,1.8c0.3,0.6,0.4,1.2,0.4,1.9c0,1.4-0.5,2.5-1.4,3.4
			c-0.9,0.9-2.2,1.3-3.7,1.3c-1.2,0-2.2-0.3-3.1-0.9c-0.9-0.6-1.6-1.5-2.2-2.7l2.6-1.6c0.8,1.5,1.7,2.2,2.7,2.2c0.5,0,1-0.2,1.4-0.5
			c0.4-0.3,0.6-0.7,0.6-1.1c0-0.4-0.1-0.7-0.4-1.1c-0.3-0.4-0.9-0.9-1.8-1.7c-1.8-1.5-3-2.6-3.5-3.4c-0.5-0.8-0.8-1.6-0.8-2.4
			c0-1.1,0.4-2.1,1.3-2.9c0.9-0.8,1.9-1.2,3.2-1.2c0.8,0,1.6,0.2,2.4,0.6C25.5,63.9,26.4,64.6,27.2,65.6z"/>
		<path class="st2" d="M35.9,63.3h3.2l6.3,16.5h-3.3l-1.3-3.4h-6.7l-1.3,3.4h-3.3L35.9,63.3z M37.5,67.7l-2.2,5.7h4.4L37.5,67.7z"/>
		<path class="st2" d="M48.4,63.3h3.3c1.8,0,3.1,0.2,3.9,0.5c0.8,0.3,1.4,0.9,1.9,1.6c0.5,0.8,0.7,1.6,0.7,2.7c0,1.1-0.3,2-0.8,2.7
			c-0.5,0.7-1.3,1.3-2.3,1.7l3.9,7.3h-3.4l-3.7-7h-0.3v7h-3.1V63.3z M51.5,69.8h1c1,0,1.7-0.1,2.1-0.4c0.4-0.3,0.6-0.7,0.6-1.3
			c0-0.4-0.1-0.7-0.3-0.9c-0.2-0.3-0.4-0.5-0.7-0.6c-0.3-0.1-0.9-0.2-1.7-0.2h-0.9V69.8z"/>
		<path class="st2" d="M66.9,63.3h3.2l6.3,16.5h-3.3l-1.3-3.4h-6.7l-1.3,3.4h-3.3L66.9,63.3z M68.5,67.7l-2.2,5.7h4.4L68.5,67.7z"/>
		<path class="st2" d="M79.2,63.3h3.2v6.2h5.5v-6.2H91v16.5h-3.2v-7.2h-5.5v7.2h-3.2V63.3z"/>
		<path class="st2" d="M100.3,63.3h9.1v3.1h-3v13.4h-3.2V66.4h-2.9V63.3z"/>
		<path class="st2" d="M111.9,63.3h9v3.1H115v3h5.9v3H115v4.3h5.9v3.1h-9V63.3z"/>
		<path class="st2" d="M124.2,63.3h3.7c2.4,0,4.2,0.3,5.3,0.9c1.2,0.6,2.1,1.6,2.9,2.9c0.8,1.3,1.1,2.9,1.1,4.7
			c0,1.3-0.2,2.4-0.6,3.5c-0.4,1.1-1,1.9-1.7,2.7s-1.5,1.2-2.4,1.5c-0.9,0.3-2.4,0.4-4.5,0.4h-3.8V63.3z M127.3,66.4v10.4h1.5
			c1.4,0,2.5-0.2,3.1-0.5c0.6-0.3,1.2-0.9,1.6-1.7c0.4-0.8,0.6-1.7,0.6-2.9c0-1.8-0.5-3.1-1.5-4.1c-0.9-0.9-2.3-1.3-4.2-1.3H127.3z"
			/>
		<path class="st2" d="M140.6,63.3h9v3.1h-5.9v3h5.9v3h-5.9v4.3h5.9v3.1h-9V63.3z"/>
		<path class="st2" d="M161.5,65.6l-2.3,2.1c-0.8-1.1-1.6-1.7-2.5-1.7c-0.4,0-0.7,0.1-1,0.3c-0.3,0.2-0.4,0.5-0.4,0.7
			s0.1,0.5,0.3,0.8c0.3,0.3,1,1,2.3,2.1c1.2,1,1.9,1.6,2.2,1.9c0.6,0.6,1.1,1.3,1.4,1.8c0.3,0.6,0.4,1.2,0.4,1.9
			c0,1.4-0.5,2.5-1.4,3.4c-0.9,0.9-2.2,1.3-3.7,1.3c-1.2,0-2.2-0.3-3.1-0.9c-0.9-0.6-1.6-1.5-2.2-2.7l2.6-1.6
			c0.8,1.5,1.7,2.2,2.7,2.2c0.5,0,1-0.2,1.4-0.5c0.4-0.3,0.6-0.7,0.6-1.1c0-0.4-0.1-0.7-0.4-1.1c-0.3-0.4-0.9-0.9-1.8-1.7
			c-1.8-1.5-3-2.6-3.5-3.4c-0.5-0.8-0.8-1.6-0.8-2.4c0-1.1,0.4-2.1,1.3-2.9c0.9-0.8,1.9-1.2,3.2-1.2c0.8,0,1.6,0.2,2.4,0.6
			C159.9,63.9,160.7,64.6,161.5,65.6z"/>
		<path class="st2" d="M180.3,66.2l-2.2,2.1c-1.5-1.6-3.2-2.4-5-2.4c-1.6,0-2.9,0.5-4,1.6s-1.6,2.4-1.6,4c0,1.1,0.2,2.1,0.7,2.9
			c0.5,0.9,1.2,1.5,2,2c0.9,0.5,1.8,0.7,2.9,0.7c0.9,0,1.7-0.2,2.5-0.5c0.8-0.3,1.6-1,2.5-1.9l2.1,2.2c-1.2,1.2-2.4,2-3.5,2.5
			s-2.3,0.7-3.7,0.7c-2.6,0-4.7-0.8-6.3-2.4c-1.6-1.6-2.4-3.7-2.4-6.3c0-1.6,0.4-3.1,1.1-4.4c0.7-1.3,1.8-2.3,3.2-3.1
			c1.4-0.8,2.9-1.2,4.5-1.2c1.4,0,2.7,0.3,3.9,0.9C178.3,64.4,179.4,65.2,180.3,66.2z"/>
		<path class="st2" d="M191.2,62.9c2.3,0,4.3,0.8,6,2.5c1.7,1.7,2.5,3.7,2.5,6.2c0,2.4-0.8,4.4-2.5,6.1c-1.7,1.7-3.7,2.5-6,2.5
			c-2.5,0-4.5-0.9-6.2-2.6c-1.6-1.7-2.5-3.7-2.5-6.1c0-1.6,0.4-3,1.1-4.3c0.8-1.3,1.8-2.4,3.1-3.1C188.2,63.3,189.7,62.9,191.2,62.9
			z M191.2,66c-1.5,0-2.8,0.5-3.8,1.6c-1,1.1-1.6,2.4-1.6,4c0,1.8,0.7,3.3,2,4.3c1,0.8,2.2,1.2,3.5,1.2c1.5,0,2.8-0.5,3.8-1.6
			c1-1.1,1.6-2.4,1.6-4c0-1.6-0.5-2.9-1.6-4C194,66.5,192.7,66,191.2,66z"/>
		<path class="st2" d="M7.9,90.2l-1,0.9c-0.7-0.7-1.4-1.2-2.3-1.5C3.9,89.2,3.1,89,2.3,89c-1,0-1.9,0.2-2.8,0.7
			c-0.9,0.5-1.6,1.1-2,1.9s-0.7,1.7-0.7,2.6c0,0.9,0.2,1.8,0.7,2.7c0.5,0.8,1.2,1.5,2.1,2c0.9,0.5,1.8,0.7,2.9,0.7
			c1.3,0,2.3-0.4,3.2-1.1c0.9-0.7,1.4-1.6,1.6-2.8H3.3v-1.2h5.3c0,1.9-0.6,3.4-1.7,4.6c-1.1,1.1-2.6,1.7-4.5,1.7
			c-2.3,0-4.1-0.8-5.4-2.3c-1-1.2-1.5-2.6-1.5-4.2c0-1.2,0.3-2.3,0.9-3.3c0.6-1,1.4-1.8,2.4-2.4c1-0.6,2.2-0.9,3.5-0.9
			c1,0,2,0.2,3,0.6C6.1,88.8,7,89.4,7.9,90.2z"/>
		<path class="st2" d="M11.1,88.1h2.5c1.4,0,2.3,0.1,2.8,0.2c0.7,0.2,1.3,0.5,1.8,1.1c0.5,0.6,0.7,1.2,0.7,2c0,0.7-0.2,1.3-0.5,1.8
			c-0.3,0.5-0.8,0.9-1.4,1.2c-0.6,0.3-1.4,0.4-2.4,0.4l4.4,5.7h-1.5L13,94.8h-0.7v5.7h-1.2V88.1z M12.3,89.3v4.2l2.1,0
			c0.8,0,1.4-0.1,1.8-0.2c0.4-0.2,0.7-0.4,0.9-0.8c0.2-0.3,0.3-0.7,0.3-1.2c0-0.4-0.1-0.8-0.3-1.1c-0.2-0.3-0.5-0.6-0.9-0.7
			c-0.4-0.1-1-0.2-1.8-0.2H12.3z"/>
		<path class="st2" d="M26.5,88.1l5.8,12.4h-1.3L29,96.4h-5.3l-1.9,4.1h-1.4l5.8-12.4H26.5z M26.3,90.8l-2.1,4.5h4.2L26.3,90.8z"/>
		<path class="st2" d="M34.2,88.1h2.5c1.4,0,2.4,0.1,2.9,0.2c0.7,0.2,1.3,0.5,1.7,1.1c0.4,0.5,0.7,1.2,0.7,2c0,0.8-0.2,1.5-0.7,2
			c-0.4,0.5-1,0.9-1.8,1.1c-0.6,0.1-1.6,0.2-3.1,0.2h-0.9v5.8h-1.2V88.1z M35.4,89.3v4.2l2.1,0c0.8,0,1.5-0.1,1.9-0.2
			c0.4-0.2,0.7-0.4,0.9-0.7c0.2-0.3,0.3-0.7,0.3-1.2c0-0.4-0.1-0.8-0.3-1.1c-0.2-0.3-0.5-0.6-0.9-0.7c-0.4-0.1-1-0.2-1.8-0.2H35.4z"
			/>
		<path class="st2" d="M44.3,88.1h1.2v5.2h6.3v-5.2h1.2v12.4h-1.2v-6h-6.3v6h-1.2V88.1z"/>
		<path class="st2" d="M56,88.1h1.2v12.4H56V88.1z"/>
		<path class="st2" d="M71.5,90.4l-1,0.7c-0.5-0.7-1.2-1.2-1.9-1.6C67.9,89.2,67,89,66.1,89c-1,0-1.9,0.2-2.7,0.7
			c-0.8,0.5-1.5,1.1-2,1.9c-0.5,0.8-0.7,1.7-0.7,2.7c0,1.5,0.5,2.8,1.6,3.8c1,1,2.3,1.5,3.9,1.5c1.7,0,3.2-0.7,4.3-2l1,0.7
			c-0.6,0.8-1.4,1.4-2.3,1.8c-0.9,0.4-2,0.6-3.1,0.6c-2.2,0-3.9-0.7-5.1-2.2c-1-1.2-1.6-2.7-1.6-4.4c0-1.8,0.6-3.3,1.9-4.6
			c1.3-1.2,2.9-1.9,4.8-1.9c1.2,0,2.2,0.2,3.1,0.7S70.9,89.6,71.5,90.4z"/>
		<path class="st2" d="M83.8,88.1l5.8,12.4h-1.3l-1.9-4.1H81l-1.9,4.1h-1.4l5.8-12.4H83.8z M83.7,90.8l-2.1,4.5h4.2L83.7,90.8z"/>
		<path class="st2" d="M91.5,100.5V88.1h0.3l8.2,9.5v-9.5h1.2v12.4H101l-8.2-9.4v9.4H91.5z"/>
		<path class="st2" d="M104.3,100.5V88.1h2.6c1.8,0,3.2,0.1,4,0.4c1.2,0.4,2.1,1.1,2.8,2.2c0.7,1,1,2.3,1,3.7c0,1.2-0.3,2.3-0.8,3.3
			c-0.5,0.9-1.2,1.6-2.1,2.1c-0.9,0.4-2.1,0.7-3.6,0.7H104.3z M105.4,99.3h1.4c1.7,0,2.9-0.1,3.6-0.3c0.9-0.3,1.7-0.8,2.2-1.6
			c0.5-0.8,0.8-1.7,0.8-2.9c0-1.2-0.3-2.2-0.9-3.1c-0.6-0.8-1.4-1.4-2.4-1.7c-0.8-0.2-2-0.4-3.8-0.4h-0.9V99.3z"/>
		<path class="st2" d="M121.1,88.1h1.3l2.5,8.9l3.5-8.9h0.3l3.5,8.9l2.6-8.9h1.3l-3.6,12.4h-0.2l-3.7-9.4l-3.7,9.4h-0.2L121.1,88.1z
			"/>
		<path class="st2" d="M138.4,88.1h7.1v1.2h-5.9v3.9h5.8v1.2h-5.8v4.9h5.8v1.2h-7V88.1z"/>
		<path class="st2" d="M147.6,88.1h2.4c1,0,1.7,0.1,2.3,0.3c0.5,0.2,0.9,0.6,1.2,1.1c0.3,0.5,0.5,1,0.5,1.6c0,0.5-0.1,1-0.4,1.5
			c-0.3,0.5-0.7,0.8-1.2,1.1c0.6,0.2,1.1,0.5,1.5,0.8c0.3,0.3,0.6,0.7,0.8,1.1c0.2,0.4,0.3,0.9,0.3,1.4c0,1-0.4,1.8-1.1,2.5
			c-0.7,0.7-1.7,1-2.9,1h-3.4V88.1z M148.9,89.3v4h0.7c0.9,0,1.5-0.1,1.9-0.2c0.4-0.2,0.7-0.4,1-0.8c0.2-0.3,0.4-0.7,0.4-1.1
			c0-0.6-0.2-1-0.6-1.3c-0.4-0.3-1-0.5-1.9-0.5H148.9z M148.9,94.5v4.7h1.5c0.9,0,1.6-0.1,2-0.3c0.4-0.2,0.8-0.5,1-0.8
			c0.3-0.4,0.4-0.8,0.4-1.2c0-0.5-0.2-1-0.5-1.4c-0.4-0.4-0.9-0.7-1.5-0.8c-0.4-0.1-1.2-0.2-2.2-0.2H148.9z"/>
		<path class="st2" d="M162.3,100.5V88.1h2.6c1.8,0,3.2,0.1,4,0.4c1.2,0.4,2.1,1.1,2.8,2.2c0.7,1,1,2.3,1,3.7c0,1.2-0.3,2.3-0.8,3.3
			c-0.5,0.9-1.2,1.6-2.1,2.1c-0.9,0.4-2.1,0.7-3.6,0.7H162.3z M163.4,99.3h1.4c1.7,0,2.9-0.1,3.6-0.3c0.9-0.3,1.7-0.8,2.2-1.6
			c0.5-0.8,0.8-1.7,0.8-2.9c0-1.2-0.3-2.2-0.9-3.1c-0.6-0.8-1.4-1.4-2.4-1.7c-0.8-0.2-2-0.4-3.8-0.4h-0.9V99.3z"/>
		<path class="st2" d="M175.1,88.1h7.1v1.2h-5.9v3.9h5.8v1.2h-5.8v4.9h5.8v1.2h-7V88.1z"/>
		<path class="st2" d="M183,98.2l1.1-0.6c0.7,1.4,1.6,2,2.6,2c0.4,0,0.8-0.1,1.2-0.3c0.4-0.2,0.6-0.5,0.8-0.8c0.2-0.3,0.3-0.7,0.3-1
			c0-0.4-0.1-0.8-0.4-1.2c-0.4-0.5-1.1-1.2-2.1-2c-1-0.8-1.7-1.3-1.9-1.7c-0.4-0.6-0.7-1.2-0.7-1.9c0-0.5,0.1-1,0.4-1.5
			c0.3-0.4,0.6-0.8,1.1-1c0.5-0.3,1-0.4,1.5-0.4c0.6,0,1.1,0.1,1.6,0.4c0.5,0.3,1,0.8,1.6,1.6l-1,0.8c-0.5-0.6-0.9-1-1.2-1.2
			c-0.3-0.2-0.7-0.3-1.1-0.3c-0.5,0-0.9,0.2-1.2,0.5c-0.3,0.3-0.5,0.7-0.5,1.1c0,0.3,0.1,0.5,0.2,0.8c0.1,0.3,0.3,0.5,0.6,0.8
			c0.2,0.2,0.7,0.6,1.6,1.2c1.1,0.8,1.8,1.5,2.2,2.1c0.4,0.6,0.6,1.2,0.6,1.9c0,0.9-0.3,1.7-1,2.3c-0.7,0.7-1.5,1-2.5,1
			c-0.8,0-1.4-0.2-2-0.6C184.1,99.8,183.5,99.1,183,98.2z"/>
		<path class="st2" d="M192.7,88.1h1.2v12.4h-1.2V88.1z"/>
		<path class="st2" d="M208.7,90.2l-1,0.9c-0.7-0.7-1.4-1.2-2.3-1.5c-0.8-0.3-1.6-0.5-2.4-0.5c-1,0-1.9,0.2-2.8,0.7
			c-0.9,0.5-1.6,1.1-2,1.9c-0.5,0.8-0.7,1.7-0.7,2.6c0,0.9,0.2,1.8,0.7,2.7c0.5,0.8,1.2,1.5,2.1,2c0.9,0.5,1.8,0.7,2.9,0.7
			c1.3,0,2.3-0.4,3.2-1.1c0.9-0.7,1.4-1.6,1.6-2.8h-3.9v-1.2h5.3c0,1.9-0.6,3.4-1.7,4.6c-1.1,1.1-2.6,1.7-4.5,1.7
			c-2.3,0-4.1-0.8-5.4-2.3c-1-1.2-1.5-2.6-1.5-4.2c0-1.2,0.3-2.3,0.9-3.3c0.6-1,1.4-1.8,2.4-2.4c1-0.6,2.2-0.9,3.5-0.9
			c1,0,2,0.2,3,0.6C206.9,88.8,207.8,89.4,208.7,90.2z"/>
		<path class="st2" d="M211.8,100.5V88.1h0.3l8.2,9.5v-9.5h1.2v12.4h-0.3l-8.2-9.4v9.4H211.8z"/>
	</g>
</g>
<g id="Layer_2">
</g>
<g id="Layer_3">
	<g id="Layer_2_copy">
	</g>
</g>
</svg>
