<?xml version="1.0" encoding="utf-8"?>
<!-- Generator: Adobe Illustrator 21.0.0, SVG Export Plug-In . SVG Version: 6.00 Build 0)  -->
<svg version="1.1" id="Layer_1" xmlns="http://www.w3.org/2000/svg" xmlns:xlink="http://www.w3.org/1999/xlink" x="0px" y="0px"
	 viewBox="0 0 50 53" style="enable-background:new 0 0 50 53;" xml:space="preserve">
<style type="text/css">
	.st0{fill:#F4F4F4;}
</style>
<path class="st0" d="M45.1,0.7H4.9C2.8,0.7,1,2.4,1,4.6v43.5C1,50.2,2.8,52,4.9,52h40.2c2.2,0,3.9-1.8,3.9-3.9V4.6
	C49,2.4,47.2,0.7,45.1,0.7z M28.3,45.3h-6.1H11.8c-0.5,0-0.9-0.3-1.1-0.7l-2.5-6.2c-0.1-0.3-0.1-0.6,0-0.9l2.3-5.4
	c0.4-0.9,1.7-0.9,2.1,0l2.1,5.3c0.2,0.4,0.6,0.7,1.1,0.7l1.9,0c0.8,0,1.4-0.8,1.1-1.6L7.9,9.1C7.6,8.3,8.2,7.5,9,7.5h6.1h10.5
	c0.5,0,0.9,0.3,1.1,0.7l2.5,6.2c0.1,0.3,0.1,0.6,0,0.9l-2.3,5.4c-0.4,0.9-1.7,0.9-2.1,0l-2.1-5.3c-0.2-0.4-0.6-0.7-1.1-0.7l-1.9,0
	c-0.8,0-1.4,0.8-1.1,1.6l10.9,27.5C29.7,44.5,29.2,45.3,28.3,45.3z M41.7,9.1L34.6,26c-0.1,0.3-0.1,0.6,0,0.9l6.8,16.9
	c0.3,0.8-0.3,1.6-1.1,1.6H35c-0.5,0-0.9-0.3-1.1-0.7L27,26.9c-0.1-0.3-0.1-0.6,0-0.9l7.3-17.8c0.2-0.4,0.6-0.7,1.1-0.7h5.3
	C41.4,7.5,42,8.4,41.7,9.1z"/>
</svg>
